<?xml version="1.0" encoding="utf-8" standalone="no"?>
<!DOCTYPE svg PUBLIC "-//W3C//DTD SVG 1.1//EN"
  "http://www.w3.org/Graphics/SVG/1.1/DTD/svg11.dtd">
<svg xmlns:xlink="http://www.w3.org/1999/xlink" width="572.4pt" height="437.016687pt" viewBox="0 0 572.4 437.016687" xmlns="http://www.w3.org/2000/svg" version="1.1">
 <metadata>
  <rdf:RDF xmlns:dc="http://purl.org/dc/elements/1.1/" xmlns:cc="http://creativecommons.org/ns#" xmlns:rdf="http://www.w3.org/1999/02/22-rdf-syntax-ns#">
   <cc:Work>
    <dc:type rdf:resource="http://purl.org/dc/dcmitype/StillImage"/>
    <dc:date>2026-03-24T19:06:27.497643</dc:date>
    <dc:format>image/svg+xml</dc:format>
    <dc:creator>
     <cc:Agent>
      <dc:title>Matplotlib v3.10.8, https://matplotlib.org/</dc:title>
     </cc:Agent>
    </dc:creator>
   </cc:Work>
  </rdf:RDF>
 </metadata>
 <defs>
  <style type="text/css">*{stroke-linejoin: round; stroke-linecap: butt}</style>
 </defs>
 <g id="figure_1">
  <g id="patch_1">
   <path d="M 0 437.016687 
L 572.4 437.016687 
L 572.4 0 
L 0 0 
z
" style="fill: #ffffff"/>
  </g>
  <g id="axes_1">
   <g id="patch_2">
    <path d="M 208.08 97.038087 
L 364.32 97.038087 
Q 372.69 97.038087 372.69 91.216887 
L 372.69 54.349287 
Q 372.69 48.528087 364.32 48.528087 
L 208.08 48.528087 
Q 199.71 48.528087 199.71 54.349287 
L 199.71 91.216887 
Q 199.71 97.038087 208.08 97.038087 
z
" clip-path="url(#p207c144972)" style="fill: #d32f2f; opacity: 0.9; stroke: #ffffff; stroke-width: 1.5; stroke-linejoin: miter"/>
   </g>
   <g id="patch_3">
    <path d="M 208.08 159.130887 
L 364.32 159.130887 
Q 372.69 159.130887 372.69 153.309687 
L 372.69 116.442087 
Q 372.69 110.620887 364.32 110.620887 
L 208.08 110.620887 
Q 199.71 110.620887 199.71 116.442087 
L 199.71 153.309687 
Q 199.71 159.130887 208.08 159.130887 
z
" clip-path="url(#p207c144972)" style="fill: #d32f2f; opacity: 0.9; stroke: #ffffff; stroke-width: 1.5; stroke-linejoin: miter"/>
   </g>
   <g id="patch_4">
    <path d="M 208.08 221.223687 
L 364.32 221.223687 
Q 372.69 221.223687 372.69 215.402487 
L 372.69 178.534887 
Q 372.69 172.713687 364.32 172.713687 
L 208.08 172.713687 
Q 199.71 172.713687 199.71 178.534887 
L 199.71 215.402487 
Q 199.71 221.223687 208.08 221.223687 
z
" clip-path="url(#p207c144972)" style="fill: #d32f2f; opacity: 0.9; stroke: #ffffff; stroke-width: 1.5; stroke-linejoin: miter"/>
   </g>
   <g id="patch_5">
    <path d="M 208.08 283.316487 
L 364.32 283.316487 
Q 372.69 283.316487 372.69 277.495287 
L 372.69 240.627687 
Q 372.69 234.806487 364.32 234.806487 
L 208.08 234.806487 
Q 199.71 234.806487 199.71 240.627687 
L 199.71 277.495287 
Q 199.71 283.316487 208.08 283.316487 
z
" clip-path="url(#p207c144972)" style="fill: #d32f2f; opacity: 0.9; stroke: #ffffff; stroke-width: 1.5; stroke-linejoin: miter"/>
   </g>
   <g id="patch_6">
    <path d="M 208.08 345.409287 
L 364.32 345.409287 
Q 372.69 345.409287 372.69 339.588087 
L 372.69 302.720487 
Q 372.69 296.899287 364.32 296.899287 
L 208.08 296.899287 
Q 199.71 296.899287 199.71 302.720487 
L 199.71 339.588087 
Q 199.71 345.409287 208.08 345.409287 
z
" clip-path="url(#p207c144972)" style="fill: #d32f2f; opacity: 0.9; stroke: #ffffff; stroke-width: 1.5; stroke-linejoin: miter"/>
   </g>
   <g id="patch_7">
    <path d="M 208.08 407.502087 
L 364.32 407.502087 
Q 372.69 407.502087 372.69 401.680887 
L 372.69 364.813287 
Q 372.69 358.992087 364.32 358.992087 
L 208.08 358.992087 
Q 199.71 358.992087 199.71 364.813287 
L 199.71 401.680887 
Q 199.71 407.502087 208.08 407.502087 
z
" clip-path="url(#p207c144972)" style="fill: #b71c1c; opacity: 0.9; stroke: #ffffff; stroke-width: 1.5; stroke-linejoin: miter"/>
   </g>
   <g id="patch_8">
    <path d="M 442.44 92.187087 
L 576.36 92.187087 
Q 581.94 92.187087 581.94 88.306287 
L 581.94 57.259887 
Q 581.94 53.379087 576.36 53.379087 
L 442.44 53.379087 
Q 436.86 53.379087 436.86 57.259887 
L 436.86 88.306287 
Q 436.86 92.187087 442.44 92.187087 
z
" clip-path="url(#p207c144972)" style="fill: #2e7d32; opacity: 0.9; stroke: #ffffff; stroke-width: 1.5; stroke-linejoin: miter"/>
   </g>
   <g id="patch_9">
    <path d="M 442.44 154.279887 
L 576.36 154.279887 
Q 581.94 154.279887 581.94 150.399087 
L 581.94 119.352687 
Q 581.94 115.471887 576.36 115.471887 
L 442.44 115.471887 
Q 436.86 115.471887 436.86 119.352687 
L 436.86 150.399087 
Q 436.86 154.279887 442.44 154.279887 
z
" clip-path="url(#p207c144972)" style="fill: #2e7d32; opacity: 0.9; stroke: #ffffff; stroke-width: 1.5; stroke-linejoin: miter"/>
   </g>
   <g id="patch_10">
    <path d="M 442.44 216.372687 
L 576.36 216.372687 
Q 581.94 216.372687 581.94 212.491887 
L 581.94 181.445487 
Q 581.94 177.564687 576.36 177.564687 
L 442.44 177.564687 
Q 436.86 177.564687 436.86 181.445487 
L 436.86 212.491887 
Q 436.86 216.372687 442.44 216.372687 
z
" clip-path="url(#p207c144972)" style="fill: #2e7d32; opacity: 0.9; stroke: #ffffff; stroke-width: 1.5; stroke-linejoin: miter"/>
   </g>
   <g id="line2d_1">
    <path d="M 372.69 79.768527 
L 372.69 65.797647 
" clip-path="url(#p207c144972)" style="fill: none; stroke: #2e7d32; stroke-width: 3; stroke-linecap: round"/>
   </g>
   <g id="line2d_2">
    <path d="M 372.69 141.861327 
L 372.69 127.890447 
" clip-path="url(#p207c144972)" style="fill: none; stroke: #2e7d32; stroke-width: 3; stroke-linecap: round"/>
   </g>
   <g id="line2d_3">
    <path d="M 372.69 203.954127 
L 372.69 189.983247 
" clip-path="url(#p207c144972)" style="fill: none; stroke: #2e7d32; stroke-width: 3; stroke-linecap: round"/>
   </g>
   <g id="text_1">
    <!-- SMN Deficiency -->
    <g style="fill: #ffffff" transform="translate(244.604102 70.048423) scale(0.095 -0.095)">
     <defs>
      <path id="DejaVuSans-Bold-53" d="M 3834 4519 
L 3834 3531 
Q 3450 3703 3084 3790 
Q 2719 3878 2394 3878 
Q 1963 3878 1756 3759 
Q 1550 3641 1550 3391 
Q 1550 3203 1689 3098 
Q 1828 2994 2194 2919 
L 2706 2816 
Q 3484 2659 3812 2340 
Q 4141 2022 4141 1434 
Q 4141 663 3683 286 
Q 3225 -91 2284 -91 
Q 1841 -91 1394 -6 
Q 947 78 500 244 
L 500 1259 
Q 947 1022 1364 901 
Q 1781 781 2169 781 
Q 2563 781 2772 912 
Q 2981 1044 2981 1288 
Q 2981 1506 2839 1625 
Q 2697 1744 2272 1838 
L 1806 1941 
Q 1106 2091 782 2419 
Q 459 2747 459 3303 
Q 459 4000 909 4375 
Q 1359 4750 2203 4750 
Q 2588 4750 2994 4692 
Q 3400 4634 3834 4519 
z
" transform="scale(0.015625)"/>
      <path id="DejaVuSans-Bold-4d" d="M 588 4666 
L 2119 4666 
L 3181 2169 
L 4250 4666 
L 5778 4666 
L 5778 0 
L 4641 0 
L 4641 3413 
L 3566 897 
L 2803 897 
L 1728 3413 
L 1728 0 
L 588 0 
L 588 4666 
z
" transform="scale(0.015625)"/>
      <path id="DejaVuSans-Bold-4e" d="M 588 4666 
L 1931 4666 
L 3628 1466 
L 3628 4666 
L 4769 4666 
L 4769 0 
L 3425 0 
L 1728 3200 
L 1728 0 
L 588 0 
L 588 4666 
z
" transform="scale(0.015625)"/>
      <path id="DejaVuSans-Bold-20" transform="scale(0.015625)"/>
      <path id="DejaVuSans-Bold-44" d="M 1791 3756 
L 1791 909 
L 2222 909 
Q 2959 909 3348 1275 
Q 3738 1641 3738 2338 
Q 3738 3031 3350 3393 
Q 2963 3756 2222 3756 
L 1791 3756 
z
M 588 4666 
L 1856 4666 
Q 2919 4666 3439 4514 
Q 3959 4363 4331 4000 
Q 4659 3684 4818 3271 
Q 4978 2859 4978 2338 
Q 4978 1809 4818 1395 
Q 4659 981 4331 666 
Q 3956 303 3431 151 
Q 2906 0 1856 0 
L 588 0 
L 588 4666 
z
" transform="scale(0.015625)"/>
      <path id="DejaVuSans-Bold-65" d="M 4031 1759 
L 4031 1441 
L 1416 1441 
Q 1456 1047 1700 850 
Q 1944 653 2381 653 
Q 2734 653 3104 758 
Q 3475 863 3866 1075 
L 3866 213 
Q 3469 63 3072 -14 
Q 2675 -91 2278 -91 
Q 1328 -91 801 392 
Q 275 875 275 1747 
Q 275 2603 792 3093 
Q 1309 3584 2216 3584 
Q 3041 3584 3536 3087 
Q 4031 2591 4031 1759 
z
M 2881 2131 
Q 2881 2450 2695 2645 
Q 2509 2841 2209 2841 
Q 1884 2841 1681 2658 
Q 1478 2475 1428 2131 
L 2881 2131 
z
" transform="scale(0.015625)"/>
      <path id="DejaVuSans-Bold-66" d="M 2841 4863 
L 2841 4128 
L 2222 4128 
Q 1984 4128 1890 4042 
Q 1797 3956 1797 3744 
L 1797 3500 
L 2753 3500 
L 2753 2700 
L 1797 2700 
L 1797 0 
L 678 0 
L 678 2700 
L 122 2700 
L 122 3500 
L 678 3500 
L 678 3744 
Q 678 4316 997 4589 
Q 1316 4863 1984 4863 
L 2841 4863 
z
" transform="scale(0.015625)"/>
      <path id="DejaVuSans-Bold-69" d="M 538 3500 
L 1656 3500 
L 1656 0 
L 538 0 
L 538 3500 
z
M 538 4863 
L 1656 4863 
L 1656 3950 
L 538 3950 
L 538 4863 
z
" transform="scale(0.015625)"/>
      <path id="DejaVuSans-Bold-63" d="M 3366 3391 
L 3366 2478 
Q 3138 2634 2908 2709 
Q 2678 2784 2431 2784 
Q 1963 2784 1702 2511 
Q 1441 2238 1441 1747 
Q 1441 1256 1702 982 
Q 1963 709 2431 709 
Q 2694 709 2930 787 
Q 3166 866 3366 1019 
L 3366 103 
Q 3103 6 2833 -42 
Q 2563 -91 2291 -91 
Q 1344 -91 809 395 
Q 275 881 275 1747 
Q 275 2613 809 3098 
Q 1344 3584 2291 3584 
Q 2566 3584 2833 3536 
Q 3100 3488 3366 3391 
z
" transform="scale(0.015625)"/>
      <path id="DejaVuSans-Bold-6e" d="M 4056 2131 
L 4056 0 
L 2931 0 
L 2931 347 
L 2931 1631 
Q 2931 2084 2911 2256 
Q 2891 2428 2841 2509 
Q 2775 2619 2662 2680 
Q 2550 2741 2406 2741 
Q 2056 2741 1856 2470 
Q 1656 2200 1656 1722 
L 1656 0 
L 538 0 
L 538 3500 
L 1656 3500 
L 1656 2988 
Q 1909 3294 2193 3439 
Q 2478 3584 2822 3584 
Q 3428 3584 3742 3212 
Q 4056 2841 4056 2131 
z
" transform="scale(0.015625)"/>
      <path id="DejaVuSans-Bold-79" d="M 78 3500 
L 1197 3500 
L 2138 1125 
L 2938 3500 
L 4056 3500 
L 2584 -331 
Q 2363 -916 2067 -1148 
Q 1772 -1381 1288 -1381 
L 641 -1381 
L 641 -647 
L 991 -647 
Q 1275 -647 1404 -556 
Q 1534 -466 1606 -231 
L 1638 -134 
L 78 3500 
z
" transform="scale(0.015625)"/>
     </defs>
     <use xlink:href="#DejaVuSans-Bold-53"/>
     <use xlink:href="#DejaVuSans-Bold-4d" transform="translate(72.021484 0)"/>
     <use xlink:href="#DejaVuSans-Bold-4e" transform="translate(171.533203 0)"/>
     <use xlink:href="#DejaVuSans-Bold-20" transform="translate(255.224609 0)"/>
     <use xlink:href="#DejaVuSans-Bold-44" transform="translate(290.039062 0)"/>
     <use xlink:href="#DejaVuSans-Bold-65" transform="translate(373.046875 0)"/>
     <use xlink:href="#DejaVuSans-Bold-66" transform="translate(440.869141 0)"/>
     <use xlink:href="#DejaVuSans-Bold-69" transform="translate(484.375 0)"/>
     <use xlink:href="#DejaVuSans-Bold-63" transform="translate(518.652344 0)"/>
     <use xlink:href="#DejaVuSans-Bold-69" transform="translate(577.929688 0)"/>
     <use xlink:href="#DejaVuSans-Bold-65" transform="translate(612.207031 0)"/>
     <use xlink:href="#DejaVuSans-Bold-6e" transform="translate(680.029297 0)"/>
     <use xlink:href="#DejaVuSans-Bold-63" transform="translate(751.220703 0)"/>
     <use xlink:href="#DejaVuSans-Bold-79" transform="translate(810.498047 0)"/>
    </g>
    <!-- (root cause) -->
    <g style="fill: #ffffff" transform="translate(253.613516 80.760564) scale(0.095 -0.095)">
     <defs>
      <path id="DejaVuSans-Bold-28" d="M 2413 -844 
L 1484 -844 
Q 1006 -72 778 623 
Q 550 1319 550 2003 
Q 550 2688 779 3389 
Q 1009 4091 1484 4856 
L 2413 4856 
Q 2013 4116 1813 3408 
Q 1613 2700 1613 2009 
Q 1613 1319 1811 609 
Q 2009 -100 2413 -844 
z
" transform="scale(0.015625)"/>
      <path id="DejaVuSans-Bold-72" d="M 3138 2547 
Q 2991 2616 2845 2648 
Q 2700 2681 2553 2681 
Q 2122 2681 1889 2404 
Q 1656 2128 1656 1613 
L 1656 0 
L 538 0 
L 538 3500 
L 1656 3500 
L 1656 2925 
Q 1872 3269 2151 3426 
Q 2431 3584 2822 3584 
Q 2878 3584 2943 3579 
Q 3009 3575 3134 3559 
L 3138 2547 
z
" transform="scale(0.015625)"/>
      <path id="DejaVuSans-Bold-6f" d="M 2203 2784 
Q 1831 2784 1636 2517 
Q 1441 2250 1441 1747 
Q 1441 1244 1636 976 
Q 1831 709 2203 709 
Q 2569 709 2762 976 
Q 2956 1244 2956 1747 
Q 2956 2250 2762 2517 
Q 2569 2784 2203 2784 
z
M 2203 3584 
Q 3106 3584 3614 3096 
Q 4122 2609 4122 1747 
Q 4122 884 3614 396 
Q 3106 -91 2203 -91 
Q 1297 -91 786 396 
Q 275 884 275 1747 
Q 275 2609 786 3096 
Q 1297 3584 2203 3584 
z
" transform="scale(0.015625)"/>
      <path id="DejaVuSans-Bold-74" d="M 1759 4494 
L 1759 3500 
L 2913 3500 
L 2913 2700 
L 1759 2700 
L 1759 1216 
Q 1759 972 1856 886 
Q 1953 800 2241 800 
L 2816 800 
L 2816 0 
L 1856 0 
Q 1194 0 917 276 
Q 641 553 641 1216 
L 641 2700 
L 84 2700 
L 84 3500 
L 641 3500 
L 641 4494 
L 1759 4494 
z
" transform="scale(0.015625)"/>
      <path id="DejaVuSans-Bold-61" d="M 2106 1575 
Q 1756 1575 1579 1456 
Q 1403 1338 1403 1106 
Q 1403 894 1545 773 
Q 1688 653 1941 653 
Q 2256 653 2472 879 
Q 2688 1106 2688 1447 
L 2688 1575 
L 2106 1575 
z
M 3816 1997 
L 3816 0 
L 2688 0 
L 2688 519 
Q 2463 200 2181 54 
Q 1900 -91 1497 -91 
Q 953 -91 614 226 
Q 275 544 275 1050 
Q 275 1666 698 1953 
Q 1122 2241 2028 2241 
L 2688 2241 
L 2688 2328 
Q 2688 2594 2478 2717 
Q 2269 2841 1825 2841 
Q 1466 2841 1156 2769 
Q 847 2697 581 2553 
L 581 3406 
Q 941 3494 1303 3539 
Q 1666 3584 2028 3584 
Q 2975 3584 3395 3211 
Q 3816 2838 3816 1997 
z
" transform="scale(0.015625)"/>
      <path id="DejaVuSans-Bold-75" d="M 500 1363 
L 500 3500 
L 1625 3500 
L 1625 3150 
Q 1625 2866 1622 2436 
Q 1619 2006 1619 1863 
Q 1619 1441 1641 1255 
Q 1663 1069 1716 984 
Q 1784 875 1895 815 
Q 2006 756 2150 756 
Q 2500 756 2700 1025 
Q 2900 1294 2900 1772 
L 2900 3500 
L 4019 3500 
L 4019 0 
L 2900 0 
L 2900 506 
Q 2647 200 2364 54 
Q 2081 -91 1741 -91 
Q 1134 -91 817 281 
Q 500 653 500 1363 
z
" transform="scale(0.015625)"/>
      <path id="DejaVuSans-Bold-73" d="M 3272 3391 
L 3272 2541 
Q 2913 2691 2578 2766 
Q 2244 2841 1947 2841 
Q 1628 2841 1473 2761 
Q 1319 2681 1319 2516 
Q 1319 2381 1436 2309 
Q 1553 2238 1856 2203 
L 2053 2175 
Q 2913 2066 3209 1816 
Q 3506 1566 3506 1031 
Q 3506 472 3093 190 
Q 2681 -91 1863 -91 
Q 1516 -91 1145 -36 
Q 775 19 384 128 
L 384 978 
Q 719 816 1070 734 
Q 1422 653 1784 653 
Q 2113 653 2278 743 
Q 2444 834 2444 1013 
Q 2444 1163 2330 1236 
Q 2216 1309 1875 1350 
L 1678 1375 
Q 931 1469 631 1722 
Q 331 1975 331 2491 
Q 331 3047 712 3315 
Q 1094 3584 1881 3584 
Q 2191 3584 2531 3537 
Q 2872 3491 3272 3391 
z
" transform="scale(0.015625)"/>
      <path id="DejaVuSans-Bold-29" d="M 513 -844 
Q 913 -100 1113 609 
Q 1313 1319 1313 2009 
Q 1313 2700 1113 3408 
Q 913 4116 513 4856 
L 1441 4856 
Q 1916 4091 2145 3389 
Q 2375 2688 2375 2003 
Q 2375 1319 2147 623 
Q 1919 -72 1441 -844 
L 513 -844 
z
" transform="scale(0.015625)"/>
     </defs>
     <use xlink:href="#DejaVuSans-Bold-28"/>
     <use xlink:href="#DejaVuSans-Bold-72" transform="translate(45.703125 0)"/>
     <use xlink:href="#DejaVuSans-Bold-6f" transform="translate(95.019531 0)"/>
     <use xlink:href="#DejaVuSans-Bold-6f" transform="translate(163.720703 0)"/>
     <use xlink:href="#DejaVuSans-Bold-74" transform="translate(232.421875 0)"/>
     <use xlink:href="#DejaVuSans-Bold-20" transform="translate(280.224609 0)"/>
     <use xlink:href="#DejaVuSans-Bold-63" transform="translate(315.039062 0)"/>
     <use xlink:href="#DejaVuSans-Bold-61" transform="translate(374.316406 0)"/>
     <use xlink:href="#DejaVuSans-Bold-75" transform="translate(441.796875 0)"/>
     <use xlink:href="#DejaVuSans-Bold-73" transform="translate(512.988281 0)"/>
     <use xlink:href="#DejaVuSans-Bold-65" transform="translate(572.509766 0)"/>
     <use xlink:href="#DejaVuSans-Bold-29" transform="translate(640.332031 0)"/>
    </g>
   </g>
   <g id="text_2">
    <!-- RhoA/ROCK -->
    <g style="fill: #ffffff" transform="translate(255.624102 132.141223) scale(0.095 -0.095)">
     <defs>
      <path id="DejaVuSans-Bold-52" d="M 2297 2597 
Q 2675 2597 2839 2737 
Q 3003 2878 3003 3200 
Q 3003 3519 2839 3656 
Q 2675 3794 2297 3794 
L 1791 3794 
L 1791 2597 
L 2297 2597 
z
M 1791 1766 
L 1791 0 
L 588 0 
L 588 4666 
L 2425 4666 
Q 3347 4666 3776 4356 
Q 4206 4047 4206 3378 
Q 4206 2916 3982 2619 
Q 3759 2322 3309 2181 
Q 3556 2125 3751 1926 
Q 3947 1728 4147 1325 
L 4800 0 
L 3519 0 
L 2950 1159 
Q 2778 1509 2601 1637 
Q 2425 1766 2131 1766 
L 1791 1766 
z
" transform="scale(0.015625)"/>
      <path id="DejaVuSans-Bold-68" d="M 4056 2131 
L 4056 0 
L 2931 0 
L 2931 347 
L 2931 1625 
Q 2931 2084 2911 2256 
Q 2891 2428 2841 2509 
Q 2775 2619 2662 2680 
Q 2550 2741 2406 2741 
Q 2056 2741 1856 2470 
Q 1656 2200 1656 1722 
L 1656 0 
L 538 0 
L 538 4863 
L 1656 4863 
L 1656 2988 
Q 1909 3294 2193 3439 
Q 2478 3584 2822 3584 
Q 3428 3584 3742 3212 
Q 4056 2841 4056 2131 
z
" transform="scale(0.015625)"/>
      <path id="DejaVuSans-Bold-41" d="M 3419 850 
L 1538 850 
L 1241 0 
L 31 0 
L 1759 4666 
L 3194 4666 
L 4922 0 
L 3713 0 
L 3419 850 
z
M 1838 1716 
L 3116 1716 
L 2478 3572 
L 1838 1716 
z
" transform="scale(0.015625)"/>
      <path id="DejaVuSans-Bold-2f" d="M 1644 4666 
L 2338 4666 
L 691 -594 
L 0 -594 
L 1644 4666 
z
" transform="scale(0.015625)"/>
      <path id="DejaVuSans-Bold-4f" d="M 2719 3878 
Q 2169 3878 1866 3472 
Q 1563 3066 1563 2328 
Q 1563 1594 1866 1187 
Q 2169 781 2719 781 
Q 3272 781 3575 1187 
Q 3878 1594 3878 2328 
Q 3878 3066 3575 3472 
Q 3272 3878 2719 3878 
z
M 2719 4750 
Q 3844 4750 4481 4106 
Q 5119 3463 5119 2328 
Q 5119 1197 4481 553 
Q 3844 -91 2719 -91 
Q 1597 -91 958 553 
Q 319 1197 319 2328 
Q 319 3463 958 4106 
Q 1597 4750 2719 4750 
z
" transform="scale(0.015625)"/>
      <path id="DejaVuSans-Bold-43" d="M 4288 256 
Q 3956 84 3597 -3 
Q 3238 -91 2847 -91 
Q 1681 -91 1000 561 
Q 319 1213 319 2328 
Q 319 3447 1000 4098 
Q 1681 4750 2847 4750 
Q 3238 4750 3597 4662 
Q 3956 4575 4288 4403 
L 4288 3438 
Q 3953 3666 3628 3772 
Q 3303 3878 2944 3878 
Q 2300 3878 1931 3465 
Q 1563 3053 1563 2328 
Q 1563 1606 1931 1193 
Q 2300 781 2944 781 
Q 3303 781 3628 887 
Q 3953 994 4288 1222 
L 4288 256 
z
" transform="scale(0.015625)"/>
      <path id="DejaVuSans-Bold-4b" d="M 588 4666 
L 1791 4666 
L 1791 2963 
L 3525 4666 
L 4922 4666 
L 2675 2456 
L 5153 0 
L 3647 0 
L 1791 1838 
L 1791 0 
L 588 0 
L 588 4666 
z
" transform="scale(0.015625)"/>
     </defs>
     <use xlink:href="#DejaVuSans-Bold-52"/>
     <use xlink:href="#DejaVuSans-Bold-68" transform="translate(77.001953 0)"/>
     <use xlink:href="#DejaVuSans-Bold-6f" transform="translate(148.193359 0)"/>
     <use xlink:href="#DejaVuSans-Bold-41" transform="translate(216.894531 0)"/>
     <use xlink:href="#DejaVuSans-Bold-2f" transform="translate(294.287109 0)"/>
     <use xlink:href="#DejaVuSans-Bold-52" transform="translate(330.810547 0)"/>
     <use xlink:href="#DejaVuSans-Bold-4f" transform="translate(407.8125 0)"/>
     <use xlink:href="#DejaVuSans-Bold-43" transform="translate(492.822266 0)"/>
     <use xlink:href="#DejaVuSans-Bold-4b" transform="translate(566.210938 0)"/>
    </g>
    <!-- hyperactivation -->
    <g style="fill: #ffffff" transform="translate(243.992539 142.779145) scale(0.095 -0.095)">
     <defs>
      <path id="DejaVuSans-Bold-70" d="M 1656 506 
L 1656 -1331 
L 538 -1331 
L 538 3500 
L 1656 3500 
L 1656 2988 
Q 1888 3294 2169 3439 
Q 2450 3584 2816 3584 
Q 3463 3584 3878 3070 
Q 4294 2556 4294 1747 
Q 4294 938 3878 423 
Q 3463 -91 2816 -91 
Q 2450 -91 2169 54 
Q 1888 200 1656 506 
z
M 2400 2772 
Q 2041 2772 1848 2508 
Q 1656 2244 1656 1747 
Q 1656 1250 1848 986 
Q 2041 722 2400 722 
Q 2759 722 2948 984 
Q 3138 1247 3138 1747 
Q 3138 2247 2948 2509 
Q 2759 2772 2400 2772 
z
" transform="scale(0.015625)"/>
      <path id="DejaVuSans-Bold-76" d="M 97 3500 
L 1216 3500 
L 2088 1081 
L 2956 3500 
L 4078 3500 
L 2700 0 
L 1472 0 
L 97 3500 
z
" transform="scale(0.015625)"/>
     </defs>
     <use xlink:href="#DejaVuSans-Bold-68"/>
     <use xlink:href="#DejaVuSans-Bold-79" transform="translate(71.191406 0)"/>
     <use xlink:href="#DejaVuSans-Bold-70" transform="translate(136.376953 0)"/>
     <use xlink:href="#DejaVuSans-Bold-65" transform="translate(207.958984 0)"/>
     <use xlink:href="#DejaVuSans-Bold-72" transform="translate(275.78125 0)"/>
     <use xlink:href="#DejaVuSans-Bold-61" transform="translate(325.097656 0)"/>
     <use xlink:href="#DejaVuSans-Bold-63" transform="translate(392.578125 0)"/>
     <use xlink:href="#DejaVuSans-Bold-74" transform="translate(451.855469 0)"/>
     <use xlink:href="#DejaVuSans-Bold-69" transform="translate(499.658203 0)"/>
     <use xlink:href="#DejaVuSans-Bold-76" transform="translate(533.935547 0)"/>
     <use xlink:href="#DejaVuSans-Bold-61" transform="translate(599.121094 0)"/>
     <use xlink:href="#DejaVuSans-Bold-74" transform="translate(666.601562 0)"/>
     <use xlink:href="#DejaVuSans-Bold-69" transform="translate(714.404297 0)"/>
     <use xlink:href="#DejaVuSans-Bold-6f" transform="translate(748.681641 0)"/>
     <use xlink:href="#DejaVuSans-Bold-6e" transform="translate(817.382812 0)"/>
    </g>
   </g>
   <g id="text_3">
    <!-- LIMK2 -->
    <g style="fill: #ffffff" transform="translate(269.69375 188.915062) scale(0.095 -0.095)">
     <defs>
      <path id="DejaVuSans-Bold-4c" d="M 588 4666 
L 1791 4666 
L 1791 909 
L 3903 909 
L 3903 0 
L 588 0 
L 588 4666 
z
" transform="scale(0.015625)"/>
      <path id="DejaVuSans-Bold-49" d="M 588 4666 
L 1791 4666 
L 1791 0 
L 588 0 
L 588 4666 
z
" transform="scale(0.015625)"/>
      <path id="DejaVuSans-Bold-32" d="M 1844 884 
L 3897 884 
L 3897 0 
L 506 0 
L 506 884 
L 2209 2388 
Q 2438 2594 2547 2791 
Q 2656 2988 2656 3200 
Q 2656 3528 2436 3728 
Q 2216 3928 1850 3928 
Q 1569 3928 1234 3808 
Q 900 3688 519 3450 
L 519 4475 
Q 925 4609 1322 4679 
Q 1719 4750 2100 4750 
Q 2938 4750 3402 4381 
Q 3866 4013 3866 3353 
Q 3866 2972 3669 2642 
Q 3472 2313 2841 1759 
L 1844 884 
z
" transform="scale(0.015625)"/>
     </defs>
     <use xlink:href="#DejaVuSans-Bold-4c"/>
     <use xlink:href="#DejaVuSans-Bold-49" transform="translate(63.720703 0)"/>
     <use xlink:href="#DejaVuSans-Bold-4d" transform="translate(100.927734 0)"/>
     <use xlink:href="#DejaVuSans-Bold-4b" transform="translate(200.439453 0)"/>
     <use xlink:href="#DejaVuSans-Bold-32" transform="translate(277.929688 0)"/>
    </g>
    <!-- hyperactivation -->
    <g style="fill: #ffffff" transform="translate(243.992539 199.552984) scale(0.095 -0.095)">
     <use xlink:href="#DejaVuSans-Bold-68"/>
     <use xlink:href="#DejaVuSans-Bold-79" transform="translate(71.191406 0)"/>
     <use xlink:href="#DejaVuSans-Bold-70" transform="translate(136.376953 0)"/>
     <use xlink:href="#DejaVuSans-Bold-65" transform="translate(207.958984 0)"/>
     <use xlink:href="#DejaVuSans-Bold-72" transform="translate(275.78125 0)"/>
     <use xlink:href="#DejaVuSans-Bold-61" transform="translate(325.097656 0)"/>
     <use xlink:href="#DejaVuSans-Bold-63" transform="translate(392.578125 0)"/>
     <use xlink:href="#DejaVuSans-Bold-74" transform="translate(451.855469 0)"/>
     <use xlink:href="#DejaVuSans-Bold-69" transform="translate(499.658203 0)"/>
     <use xlink:href="#DejaVuSans-Bold-76" transform="translate(533.935547 0)"/>
     <use xlink:href="#DejaVuSans-Bold-61" transform="translate(599.121094 0)"/>
     <use xlink:href="#DejaVuSans-Bold-74" transform="translate(666.601562 0)"/>
     <use xlink:href="#DejaVuSans-Bold-69" transform="translate(714.404297 0)"/>
     <use xlink:href="#DejaVuSans-Bold-6f" transform="translate(748.681641 0)"/>
     <use xlink:href="#DejaVuSans-Bold-6e" transform="translate(817.382812 0)"/>
    </g>
    <!-- (+2.81x in SMA MNs) -->
    <g style="fill: #ffffff" transform="translate(229.771484 210.265125) scale(0.095 -0.095)">
     <defs>
      <path id="DejaVuSans-Bold-2b" d="M 3053 4013 
L 3053 2375 
L 4684 2375 
L 4684 1638 
L 3053 1638 
L 3053 0 
L 2309 0 
L 2309 1638 
L 678 1638 
L 678 2375 
L 2309 2375 
L 2309 4013 
L 3053 4013 
z
" transform="scale(0.015625)"/>
      <path id="DejaVuSans-Bold-2e" d="M 653 1209 
L 1778 1209 
L 1778 0 
L 653 0 
L 653 1209 
z
" transform="scale(0.015625)"/>
      <path id="DejaVuSans-Bold-38" d="M 2228 2088 
Q 1891 2088 1709 1903 
Q 1528 1719 1528 1375 
Q 1528 1031 1709 848 
Q 1891 666 2228 666 
Q 2563 666 2741 848 
Q 2919 1031 2919 1375 
Q 2919 1722 2741 1905 
Q 2563 2088 2228 2088 
z
M 1350 2484 
Q 925 2613 709 2878 
Q 494 3144 494 3541 
Q 494 4131 934 4440 
Q 1375 4750 2228 4750 
Q 3075 4750 3515 4442 
Q 3956 4134 3956 3541 
Q 3956 3144 3739 2878 
Q 3522 2613 3097 2484 
Q 3572 2353 3814 2058 
Q 4056 1763 4056 1313 
Q 4056 619 3595 264 
Q 3134 -91 2228 -91 
Q 1319 -91 855 264 
Q 391 619 391 1313 
Q 391 1763 633 2058 
Q 875 2353 1350 2484 
z
M 1631 3419 
Q 1631 3141 1786 2991 
Q 1941 2841 2228 2841 
Q 2509 2841 2662 2991 
Q 2816 3141 2816 3419 
Q 2816 3697 2662 3845 
Q 2509 3994 2228 3994 
Q 1941 3994 1786 3844 
Q 1631 3694 1631 3419 
z
" transform="scale(0.015625)"/>
      <path id="DejaVuSans-Bold-31" d="M 750 831 
L 1813 831 
L 1813 3847 
L 722 3622 
L 722 4441 
L 1806 4666 
L 2950 4666 
L 2950 831 
L 4013 831 
L 4013 0 
L 750 0 
L 750 831 
z
" transform="scale(0.015625)"/>
      <path id="DejaVuSans-Bold-78" d="M 1422 1791 
L 159 3500 
L 1344 3500 
L 2059 2463 
L 2784 3500 
L 3969 3500 
L 2706 1797 
L 4031 0 
L 2847 0 
L 2059 1106 
L 1281 0 
L 97 0 
L 1422 1791 
z
" transform="scale(0.015625)"/>
     </defs>
     <use xlink:href="#DejaVuSans-Bold-28"/>
     <use xlink:href="#DejaVuSans-Bold-2b" transform="translate(45.703125 0)"/>
     <use xlink:href="#DejaVuSans-Bold-32" transform="translate(129.492188 0)"/>
     <use xlink:href="#DejaVuSans-Bold-2e" transform="translate(199.072266 0)"/>
     <use xlink:href="#DejaVuSans-Bold-38" transform="translate(237.060547 0)"/>
     <use xlink:href="#DejaVuSans-Bold-31" transform="translate(306.640625 0)"/>
     <use xlink:href="#DejaVuSans-Bold-78" transform="translate(376.220703 0)"/>
     <use xlink:href="#DejaVuSans-Bold-20" transform="translate(440.722656 0)"/>
     <use xlink:href="#DejaVuSans-Bold-69" transform="translate(475.537109 0)"/>
     <use xlink:href="#DejaVuSans-Bold-6e" transform="translate(509.814453 0)"/>
     <use xlink:href="#DejaVuSans-Bold-20" transform="translate(581.005859 0)"/>
     <use xlink:href="#DejaVuSans-Bold-53" transform="translate(615.820312 0)"/>
     <use xlink:href="#DejaVuSans-Bold-4d" transform="translate(687.841797 0)"/>
     <use xlink:href="#DejaVuSans-Bold-41" transform="translate(787.353516 0)"/>
     <use xlink:href="#DejaVuSans-Bold-20" transform="translate(864.746094 0)"/>
     <use xlink:href="#DejaVuSans-Bold-4d" transform="translate(899.560547 0)"/>
     <use xlink:href="#DejaVuSans-Bold-4e" transform="translate(999.072266 0)"/>
     <use xlink:href="#DejaVuSans-Bold-73" transform="translate(1082.763672 0)"/>
     <use xlink:href="#DejaVuSans-Bold-29" transform="translate(1142.285156 0)"/>
    </g>
   </g>
   <g id="text_4">
    <!-- p-Cofilin (CFL2) -->
    <g style="fill: #ffffff" transform="translate(244.688711 256.363933) scale(0.095 -0.095)">
     <defs>
      <path id="DejaVuSans-Bold-2d" d="M 347 2297 
L 2309 2297 
L 2309 1388 
L 347 1388 
L 347 2297 
z
" transform="scale(0.015625)"/>
      <path id="DejaVuSans-Bold-6c" d="M 538 4863 
L 1656 4863 
L 1656 0 
L 538 0 
L 538 4863 
z
" transform="scale(0.015625)"/>
      <path id="DejaVuSans-Bold-46" d="M 588 4666 
L 3834 4666 
L 3834 3756 
L 1791 3756 
L 1791 2888 
L 3713 2888 
L 3713 1978 
L 1791 1978 
L 1791 0 
L 588 0 
L 588 4666 
z
" transform="scale(0.015625)"/>
     </defs>
     <use xlink:href="#DejaVuSans-Bold-70"/>
     <use xlink:href="#DejaVuSans-Bold-2d" transform="translate(71.582031 0)"/>
     <use xlink:href="#DejaVuSans-Bold-43" transform="translate(113.085938 0)"/>
     <use xlink:href="#DejaVuSans-Bold-6f" transform="translate(186.474609 0)"/>
     <use xlink:href="#DejaVuSans-Bold-66" transform="translate(255.175781 0)"/>
     <use xlink:href="#DejaVuSans-Bold-69" transform="translate(298.681641 0)"/>
     <use xlink:href="#DejaVuSans-Bold-6c" transform="translate(332.958984 0)"/>
     <use xlink:href="#DejaVuSans-Bold-69" transform="translate(367.236328 0)"/>
     <use xlink:href="#DejaVuSans-Bold-6e" transform="translate(401.513672 0)"/>
     <use xlink:href="#DejaVuSans-Bold-20" transform="translate(472.705078 0)"/>
     <use xlink:href="#DejaVuSans-Bold-28" transform="translate(507.519531 0)"/>
     <use xlink:href="#DejaVuSans-Bold-43" transform="translate(553.222656 0)"/>
     <use xlink:href="#DejaVuSans-Bold-46" transform="translate(626.611328 0)"/>
     <use xlink:href="#DejaVuSans-Bold-4c" transform="translate(694.921875 0)"/>
     <use xlink:href="#DejaVuSans-Bold-32" transform="translate(758.642578 0)"/>
     <use xlink:href="#DejaVuSans-Bold-29" transform="translate(828.222656 0)"/>
    </g>
    <!-- (inactivated) -->
    <g style="fill: #ffffff" transform="translate(251.734297 267.001855) scale(0.095 -0.095)">
     <defs>
      <path id="DejaVuSans-Bold-64" d="M 2919 2988 
L 2919 4863 
L 4044 4863 
L 4044 0 
L 2919 0 
L 2919 506 
Q 2688 197 2409 53 
Q 2131 -91 1766 -91 
Q 1119 -91 703 423 
Q 288 938 288 1747 
Q 288 2556 703 3070 
Q 1119 3584 1766 3584 
Q 2128 3584 2408 3439 
Q 2688 3294 2919 2988 
z
M 2181 722 
Q 2541 722 2730 984 
Q 2919 1247 2919 1747 
Q 2919 2247 2730 2509 
Q 2541 2772 2181 2772 
Q 1825 2772 1636 2509 
Q 1447 2247 1447 1747 
Q 1447 1247 1636 984 
Q 1825 722 2181 722 
z
" transform="scale(0.015625)"/>
     </defs>
     <use xlink:href="#DejaVuSans-Bold-28"/>
     <use xlink:href="#DejaVuSans-Bold-69" transform="translate(45.703125 0)"/>
     <use xlink:href="#DejaVuSans-Bold-6e" transform="translate(79.980469 0)"/>
     <use xlink:href="#DejaVuSans-Bold-61" transform="translate(151.171875 0)"/>
     <use xlink:href="#DejaVuSans-Bold-63" transform="translate(218.652344 0)"/>
     <use xlink:href="#DejaVuSans-Bold-74" transform="translate(277.929688 0)"/>
     <use xlink:href="#DejaVuSans-Bold-69" transform="translate(325.732422 0)"/>
     <use xlink:href="#DejaVuSans-Bold-76" transform="translate(360.009766 0)"/>
     <use xlink:href="#DejaVuSans-Bold-61" transform="translate(425.195312 0)"/>
     <use xlink:href="#DejaVuSans-Bold-74" transform="translate(492.675781 0)"/>
     <use xlink:href="#DejaVuSans-Bold-65" transform="translate(540.478516 0)"/>
     <use xlink:href="#DejaVuSans-Bold-64" transform="translate(608.300781 0)"/>
     <use xlink:href="#DejaVuSans-Bold-29" transform="translate(679.882812 0)"/>
    </g>
   </g>
   <g id="text_5">
    <!-- Actin-Cofilin Rod -->
    <g style="fill: #ffffff" transform="translate(241.400078 318.456733) scale(0.095 -0.095)">
     <use xlink:href="#DejaVuSans-Bold-41"/>
     <use xlink:href="#DejaVuSans-Bold-63" transform="translate(77.392578 0)"/>
     <use xlink:href="#DejaVuSans-Bold-74" transform="translate(136.669922 0)"/>
     <use xlink:href="#DejaVuSans-Bold-69" transform="translate(184.472656 0)"/>
     <use xlink:href="#DejaVuSans-Bold-6e" transform="translate(218.75 0)"/>
     <use xlink:href="#DejaVuSans-Bold-2d" transform="translate(289.941406 0)"/>
     <use xlink:href="#DejaVuSans-Bold-43" transform="translate(331.445312 0)"/>
     <use xlink:href="#DejaVuSans-Bold-6f" transform="translate(404.833984 0)"/>
     <use xlink:href="#DejaVuSans-Bold-66" transform="translate(473.535156 0)"/>
     <use xlink:href="#DejaVuSans-Bold-69" transform="translate(517.041016 0)"/>
     <use xlink:href="#DejaVuSans-Bold-6c" transform="translate(551.318359 0)"/>
     <use xlink:href="#DejaVuSans-Bold-69" transform="translate(585.595703 0)"/>
     <use xlink:href="#DejaVuSans-Bold-6e" transform="translate(619.873047 0)"/>
     <use xlink:href="#DejaVuSans-Bold-20" transform="translate(691.064453 0)"/>
     <use xlink:href="#DejaVuSans-Bold-52" transform="translate(725.878906 0)"/>
     <use xlink:href="#DejaVuSans-Bold-6f" transform="translate(802.880859 0)"/>
     <use xlink:href="#DejaVuSans-Bold-64" transform="translate(871.582031 0)"/>
    </g>
    <!-- Formation -->
    <g style="fill: #ffffff" transform="translate(258.840742 329.094655) scale(0.095 -0.095)">
     <defs>
      <path id="DejaVuSans-Bold-6d" d="M 3781 2919 
Q 3994 3244 4286 3414 
Q 4578 3584 4928 3584 
Q 5531 3584 5847 3212 
Q 6163 2841 6163 2131 
L 6163 0 
L 5038 0 
L 5038 1825 
Q 5041 1866 5042 1909 
Q 5044 1953 5044 2034 
Q 5044 2406 4934 2573 
Q 4825 2741 4581 2741 
Q 4263 2741 4089 2478 
Q 3916 2216 3909 1719 
L 3909 0 
L 2784 0 
L 2784 1825 
Q 2784 2406 2684 2573 
Q 2584 2741 2328 2741 
Q 2006 2741 1831 2477 
Q 1656 2213 1656 1722 
L 1656 0 
L 531 0 
L 531 3500 
L 1656 3500 
L 1656 2988 
Q 1863 3284 2130 3434 
Q 2397 3584 2719 3584 
Q 3081 3584 3359 3409 
Q 3638 3234 3781 2919 
z
" transform="scale(0.015625)"/>
     </defs>
     <use xlink:href="#DejaVuSans-Bold-46"/>
     <use xlink:href="#DejaVuSans-Bold-6f" transform="translate(64.310547 0)"/>
     <use xlink:href="#DejaVuSans-Bold-72" transform="translate(133.011719 0)"/>
     <use xlink:href="#DejaVuSans-Bold-6d" transform="translate(182.328125 0)"/>
     <use xlink:href="#DejaVuSans-Bold-61" transform="translate(286.527344 0)"/>
     <use xlink:href="#DejaVuSans-Bold-74" transform="translate(354.007812 0)"/>
     <use xlink:href="#DejaVuSans-Bold-69" transform="translate(401.810547 0)"/>
     <use xlink:href="#DejaVuSans-Bold-6f" transform="translate(436.087891 0)"/>
     <use xlink:href="#DejaVuSans-Bold-6e" transform="translate(504.789062 0)"/>
    </g>
   </g>
   <g id="text_6">
    <!-- Motor Neuron -->
    <g style="fill: #ffffff" transform="translate(249.114375 380.512423) scale(0.095 -0.095)">
     <use xlink:href="#DejaVuSans-Bold-4d"/>
     <use xlink:href="#DejaVuSans-Bold-6f" transform="translate(99.511719 0)"/>
     <use xlink:href="#DejaVuSans-Bold-74" transform="translate(168.212891 0)"/>
     <use xlink:href="#DejaVuSans-Bold-6f" transform="translate(216.015625 0)"/>
     <use xlink:href="#DejaVuSans-Bold-72" transform="translate(284.716797 0)"/>
     <use xlink:href="#DejaVuSans-Bold-20" transform="translate(334.033203 0)"/>
     <use xlink:href="#DejaVuSans-Bold-4e" transform="translate(368.847656 0)"/>
     <use xlink:href="#DejaVuSans-Bold-65" transform="translate(452.539062 0)"/>
     <use xlink:href="#DejaVuSans-Bold-75" transform="translate(520.361328 0)"/>
     <use xlink:href="#DejaVuSans-Bold-72" transform="translate(591.552734 0)"/>
     <use xlink:href="#DejaVuSans-Bold-6f" transform="translate(640.869141 0)"/>
     <use xlink:href="#DejaVuSans-Bold-6e" transform="translate(709.570312 0)"/>
    </g>
    <!-- Degeneration -->
    <g style="fill: #ffffff" transform="translate(249.718516 391.150345) scale(0.095 -0.095)">
     <defs>
      <path id="DejaVuSans-Bold-67" d="M 2919 594 
Q 2688 288 2409 144 
Q 2131 0 1766 0 
Q 1125 0 706 504 
Q 288 1009 288 1791 
Q 288 2575 706 3076 
Q 1125 3578 1766 3578 
Q 2131 3578 2409 3434 
Q 2688 3291 2919 2981 
L 2919 3500 
L 4044 3500 
L 4044 353 
Q 4044 -491 3511 -936 
Q 2978 -1381 1966 -1381 
Q 1638 -1381 1331 -1331 
Q 1025 -1281 716 -1178 
L 716 -306 
Q 1009 -475 1290 -558 
Q 1572 -641 1856 -641 
Q 2406 -641 2662 -400 
Q 2919 -159 2919 353 
L 2919 594 
z
M 2181 2772 
Q 1834 2772 1640 2515 
Q 1447 2259 1447 1791 
Q 1447 1309 1634 1061 
Q 1822 813 2181 813 
Q 2531 813 2725 1069 
Q 2919 1325 2919 1791 
Q 2919 2259 2725 2515 
Q 2531 2772 2181 2772 
z
" transform="scale(0.015625)"/>
     </defs>
     <use xlink:href="#DejaVuSans-Bold-44"/>
     <use xlink:href="#DejaVuSans-Bold-65" transform="translate(83.007812 0)"/>
     <use xlink:href="#DejaVuSans-Bold-67" transform="translate(150.830078 0)"/>
     <use xlink:href="#DejaVuSans-Bold-65" transform="translate(222.412109 0)"/>
     <use xlink:href="#DejaVuSans-Bold-6e" transform="translate(290.234375 0)"/>
     <use xlink:href="#DejaVuSans-Bold-65" transform="translate(361.425781 0)"/>
     <use xlink:href="#DejaVuSans-Bold-72" transform="translate(429.248047 0)"/>
     <use xlink:href="#DejaVuSans-Bold-61" transform="translate(478.564453 0)"/>
     <use xlink:href="#DejaVuSans-Bold-74" transform="translate(546.044922 0)"/>
     <use xlink:href="#DejaVuSans-Bold-69" transform="translate(593.847656 0)"/>
     <use xlink:href="#DejaVuSans-Bold-6f" transform="translate(628.125 0)"/>
     <use xlink:href="#DejaVuSans-Bold-6e" transform="translate(696.826172 0)"/>
    </g>
   </g>
   <g id="patch_11">
    <path d="M 286.2 95.155719 
Q 286.2 103.82976 286.2 110.267733 
" style="fill: none; stroke: #424242; stroke-width: 2; stroke-linecap: round"/>
    <path d="M 289.8 103.067733 
L 286.2 110.267733 
L 282.6 103.067733 
z
" style="fill: #424242; stroke: #424242; stroke-width: 2; stroke-linecap: round"/>
   </g>
   <g id="patch_12">
    <path d="M 286.2 157.248519 
Q 286.2 165.92256 286.2 172.360533 
" style="fill: none; stroke: #424242; stroke-width: 2; stroke-linecap: round"/>
    <path d="M 289.8 165.160533 
L 286.2 172.360533 
L 282.6 165.160533 
z
" style="fill: #424242; stroke: #424242; stroke-width: 2; stroke-linecap: round"/>
   </g>
   <g id="patch_13">
    <path d="M 286.2 219.341319 
Q 286.2 228.01536 286.2 234.453333 
" style="fill: none; stroke: #424242; stroke-width: 2; stroke-linecap: round"/>
    <path d="M 289.8 227.253333 
L 286.2 234.453333 
L 282.6 227.253333 
z
" style="fill: #424242; stroke: #424242; stroke-width: 2; stroke-linecap: round"/>
   </g>
   <g id="patch_14">
    <path d="M 286.2 281.434119 
Q 286.2 290.10816 286.2 296.546133 
" style="fill: none; stroke: #424242; stroke-width: 2; stroke-linecap: round"/>
    <path d="M 289.8 289.346133 
L 286.2 296.546133 
L 282.6 289.346133 
z
" style="fill: #424242; stroke: #424242; stroke-width: 2; stroke-linecap: round"/>
   </g>
   <g id="patch_15">
    <path d="M 286.2 343.526919 
Q 286.2 352.20096 286.2 358.638933 
" style="fill: none; stroke: #424242; stroke-width: 2; stroke-linecap: round"/>
    <path d="M 289.8 351.438933 
L 286.2 358.638933 
L 282.6 351.438933 
z
" style="fill: #424242; stroke: #424242; stroke-width: 2; stroke-linecap: round"/>
   </g>
   <g id="text_7">
    <!-- Risdiplam -->
    <g style="fill: #ffffff" transform="translate(485.846367 68.395883) scale(0.085 -0.085)">
     <use xlink:href="#DejaVuSans-Bold-52"/>
     <use xlink:href="#DejaVuSans-Bold-69" transform="translate(77.001953 0)"/>
     <use xlink:href="#DejaVuSans-Bold-73" transform="translate(111.279297 0)"/>
     <use xlink:href="#DejaVuSans-Bold-64" transform="translate(170.800781 0)"/>
     <use xlink:href="#DejaVuSans-Bold-69" transform="translate(242.382812 0)"/>
     <use xlink:href="#DejaVuSans-Bold-70" transform="translate(276.660156 0)"/>
     <use xlink:href="#DejaVuSans-Bold-6c" transform="translate(348.242188 0)"/>
     <use xlink:href="#DejaVuSans-Bold-61" transform="translate(382.519531 0)"/>
     <use xlink:href="#DejaVuSans-Bold-6d" transform="translate(450 0)"/>
    </g>
    <!-- (SMN2 splicing) -->
    <g style="fill: #ffffff" transform="translate(471.7025 77.914023) scale(0.085 -0.085)">
     <use xlink:href="#DejaVuSans-Bold-28"/>
     <use xlink:href="#DejaVuSans-Bold-53" transform="translate(45.703125 0)"/>
     <use xlink:href="#DejaVuSans-Bold-4d" transform="translate(117.724609 0)"/>
     <use xlink:href="#DejaVuSans-Bold-4e" transform="translate(217.236328 0)"/>
     <use xlink:href="#DejaVuSans-Bold-32" transform="translate(300.927734 0)"/>
     <use xlink:href="#DejaVuSans-Bold-20" transform="translate(370.507812 0)"/>
     <use xlink:href="#DejaVuSans-Bold-73" transform="translate(405.322266 0)"/>
     <use xlink:href="#DejaVuSans-Bold-70" transform="translate(464.84375 0)"/>
     <use xlink:href="#DejaVuSans-Bold-6c" transform="translate(536.425781 0)"/>
     <use xlink:href="#DejaVuSans-Bold-69" transform="translate(570.703125 0)"/>
     <use xlink:href="#DejaVuSans-Bold-63" transform="translate(604.980469 0)"/>
     <use xlink:href="#DejaVuSans-Bold-69" transform="translate(664.257812 0)"/>
     <use xlink:href="#DejaVuSans-Bold-6e" transform="translate(698.535156 0)"/>
     <use xlink:href="#DejaVuSans-Bold-67" transform="translate(769.726562 0)"/>
     <use xlink:href="#DejaVuSans-Bold-29" transform="translate(841.308594 0)"/>
    </g>
   </g>
   <g id="patch_16">
    <path d="M 434.861499 72.783087 
Q 403.381896 72.783087 374.697377 72.783087 
" style="fill: none; stroke-dasharray: 9.25,4; stroke-dashoffset: 0; stroke: #2e7d32; stroke-width: 2.5; stroke-linecap: round"/>
    <path d="M 381.097377 75.983087 
L 374.697377 72.783087 
L 381.097377 69.583087 
z
" style="fill: #2e7d32; stroke-dasharray: 9.25,4; stroke-dashoffset: 0; stroke: #2e7d32; stroke-width: 2.5; stroke-linecap: round"/>
   </g>
   <g id="text_8">
    <!-- Fasudil -->
    <g style="fill: #ffffff" transform="translate(492.367461 130.521886) scale(0.085 -0.085)">
     <use xlink:href="#DejaVuSans-Bold-46"/>
     <use xlink:href="#DejaVuSans-Bold-61" transform="translate(62.435547 0)"/>
     <use xlink:href="#DejaVuSans-Bold-73" transform="translate(129.916016 0)"/>
     <use xlink:href="#DejaVuSans-Bold-75" transform="translate(189.4375 0)"/>
     <use xlink:href="#DejaVuSans-Bold-64" transform="translate(260.628906 0)"/>
     <use xlink:href="#DejaVuSans-Bold-69" transform="translate(332.210938 0)"/>
     <use xlink:href="#DejaVuSans-Bold-6c" transform="translate(366.488281 0)"/>
    </g>
    <!-- (ROCK inhibitor) -->
    <g style="fill: #ffffff" transform="translate(470.226953 140.040027) scale(0.085 -0.085)">
     <defs>
      <path id="DejaVuSans-Bold-62" d="M 2400 722 
Q 2759 722 2948 984 
Q 3138 1247 3138 1747 
Q 3138 2247 2948 2509 
Q 2759 2772 2400 2772 
Q 2041 2772 1848 2508 
Q 1656 2244 1656 1747 
Q 1656 1250 1848 986 
Q 2041 722 2400 722 
z
M 1656 2988 
Q 1888 3294 2169 3439 
Q 2450 3584 2816 3584 
Q 3463 3584 3878 3070 
Q 4294 2556 4294 1747 
Q 4294 938 3878 423 
Q 3463 -91 2816 -91 
Q 2450 -91 2169 54 
Q 1888 200 1656 506 
L 1656 0 
L 538 0 
L 538 4863 
L 1656 4863 
L 1656 2988 
z
" transform="scale(0.015625)"/>
     </defs>
     <use xlink:href="#DejaVuSans-Bold-28"/>
     <use xlink:href="#DejaVuSans-Bold-52" transform="translate(45.703125 0)"/>
     <use xlink:href="#DejaVuSans-Bold-4f" transform="translate(122.705078 0)"/>
     <use xlink:href="#DejaVuSans-Bold-43" transform="translate(207.714844 0)"/>
     <use xlink:href="#DejaVuSans-Bold-4b" transform="translate(281.103516 0)"/>
     <use xlink:href="#DejaVuSans-Bold-20" transform="translate(358.59375 0)"/>
     <use xlink:href="#DejaVuSans-Bold-69" transform="translate(393.408203 0)"/>
     <use xlink:href="#DejaVuSans-Bold-6e" transform="translate(427.685547 0)"/>
     <use xlink:href="#DejaVuSans-Bold-68" transform="translate(498.876953 0)"/>
     <use xlink:href="#DejaVuSans-Bold-69" transform="translate(570.068359 0)"/>
     <use xlink:href="#DejaVuSans-Bold-62" transform="translate(604.345703 0)"/>
     <use xlink:href="#DejaVuSans-Bold-69" transform="translate(675.927734 0)"/>
     <use xlink:href="#DejaVuSans-Bold-74" transform="translate(710.205078 0)"/>
     <use xlink:href="#DejaVuSans-Bold-6f" transform="translate(758.007812 0)"/>
     <use xlink:href="#DejaVuSans-Bold-72" transform="translate(826.708984 0)"/>
     <use xlink:href="#DejaVuSans-Bold-29" transform="translate(876.025391 0)"/>
    </g>
   </g>
   <g id="patch_17">
    <path d="M 434.861499 134.875887 
Q 403.381896 134.875887 374.697377 134.875887 
" style="fill: none; stroke-dasharray: 9.25,4; stroke-dashoffset: 0; stroke: #2e7d32; stroke-width: 2.5; stroke-linecap: round"/>
    <path d="M 381.097377 138.075887 
L 374.697377 134.875887 
L 381.097377 131.675887 
z
" style="fill: #2e7d32; stroke-dasharray: 9.25,4; stroke-dashoffset: 0; stroke: #2e7d32; stroke-width: 2.5; stroke-linecap: round"/>
   </g>
   <g id="text_9">
    <!-- genmol_119 -->
    <g style="fill: #ffffff" transform="translate(480.648086 192.496483) scale(0.085 -0.085)">
     <defs>
      <path id="DejaVuSans-Bold-5f" d="M 3200 -916 
L 3200 -1509 
L 0 -1509 
L 0 -916 
L 3200 -916 
z
" transform="scale(0.015625)"/>
      <path id="DejaVuSans-Bold-39" d="M 641 103 
L 641 966 
Q 928 831 1190 764 
Q 1453 697 1709 697 
Q 2247 697 2547 995 
Q 2847 1294 2900 1881 
Q 2688 1725 2447 1647 
Q 2206 1569 1925 1569 
Q 1209 1569 770 1986 
Q 331 2403 331 3084 
Q 331 3838 820 4291 
Q 1309 4744 2131 4744 
Q 3044 4744 3544 4128 
Q 4044 3513 4044 2388 
Q 4044 1231 3459 570 
Q 2875 -91 1856 -91 
Q 1528 -91 1228 -42 
Q 928 6 641 103 
z
M 2125 2350 
Q 2441 2350 2600 2554 
Q 2759 2759 2759 3169 
Q 2759 3575 2600 3781 
Q 2441 3988 2125 3988 
Q 1809 3988 1650 3781 
Q 1491 3575 1491 3169 
Q 1491 2759 1650 2554 
Q 1809 2350 2125 2350 
z
" transform="scale(0.015625)"/>
     </defs>
     <use xlink:href="#DejaVuSans-Bold-67"/>
     <use xlink:href="#DejaVuSans-Bold-65" transform="translate(71.582031 0)"/>
     <use xlink:href="#DejaVuSans-Bold-6e" transform="translate(139.404297 0)"/>
     <use xlink:href="#DejaVuSans-Bold-6d" transform="translate(210.595703 0)"/>
     <use xlink:href="#DejaVuSans-Bold-6f" transform="translate(314.794922 0)"/>
     <use xlink:href="#DejaVuSans-Bold-6c" transform="translate(383.496094 0)"/>
     <use xlink:href="#DejaVuSans-Bold-5f" transform="translate(417.773438 0)"/>
     <use xlink:href="#DejaVuSans-Bold-31" transform="translate(467.773438 0)"/>
     <use xlink:href="#DejaVuSans-Bold-31" transform="translate(537.353516 0)"/>
     <use xlink:href="#DejaVuSans-Bold-39" transform="translate(606.933594 0)"/>
    </g>
    <!-- (LIMK2 inhibitor) -->
    <g style="fill: #ffffff" transform="translate(468.756055 202.25103) scale(0.085 -0.085)">
     <use xlink:href="#DejaVuSans-Bold-28"/>
     <use xlink:href="#DejaVuSans-Bold-4c" transform="translate(45.703125 0)"/>
     <use xlink:href="#DejaVuSans-Bold-49" transform="translate(109.423828 0)"/>
     <use xlink:href="#DejaVuSans-Bold-4d" transform="translate(146.630859 0)"/>
     <use xlink:href="#DejaVuSans-Bold-4b" transform="translate(246.142578 0)"/>
     <use xlink:href="#DejaVuSans-Bold-32" transform="translate(323.632812 0)"/>
     <use xlink:href="#DejaVuSans-Bold-20" transform="translate(393.212891 0)"/>
     <use xlink:href="#DejaVuSans-Bold-69" transform="translate(428.027344 0)"/>
     <use xlink:href="#DejaVuSans-Bold-6e" transform="translate(462.304688 0)"/>
     <use xlink:href="#DejaVuSans-Bold-68" transform="translate(533.496094 0)"/>
     <use xlink:href="#DejaVuSans-Bold-69" transform="translate(604.6875 0)"/>
     <use xlink:href="#DejaVuSans-Bold-62" transform="translate(638.964844 0)"/>
     <use xlink:href="#DejaVuSans-Bold-69" transform="translate(710.546875 0)"/>
     <use xlink:href="#DejaVuSans-Bold-74" transform="translate(744.824219 0)"/>
     <use xlink:href="#DejaVuSans-Bold-6f" transform="translate(792.626953 0)"/>
     <use xlink:href="#DejaVuSans-Bold-72" transform="translate(861.328125 0)"/>
     <use xlink:href="#DejaVuSans-Bold-29" transform="translate(910.644531 0)"/>
    </g>
   </g>
   <g id="patch_18">
    <path d="M 434.861499 196.968687 
Q 403.381896 196.968687 374.697377 196.968687 
" style="fill: none; stroke-dasharray: 9.25,4; stroke-dashoffset: 0; stroke: #2e7d32; stroke-width: 2.5; stroke-linecap: round"/>
    <path d="M 381.097377 200.168687 
L 374.697377 196.968687 
L 381.097377 193.768687 
z
" style="fill: #2e7d32; stroke-dasharray: 9.25,4; stroke-dashoffset: 0; stroke: #2e7d32; stroke-width: 2.5; stroke-linecap: round"/>
   </g>
   <g id="text_10">
    <!-- Figure 1: ROCK→LIMK2→CFL2 Pathological Cascade in SMA -->
    <g transform="translate(71.660391 17.077969) scale(0.13 -0.13)">
     <defs>
      <path id="DejaVuSans-Bold-3a" d="M 716 3500 
L 1844 3500 
L 1844 2291 
L 716 2291 
L 716 3500 
z
M 716 1209 
L 1844 1209 
L 1844 0 
L 716 0 
L 716 1209 
z
" transform="scale(0.015625)"/>
      <path id="DejaVuSans-Bold-2192" d="M 5050 2225 
L 5050 1788 
L 3822 559 
L 3369 1013 
L 3988 1631 
L 366 1631 
L 366 2381 
L 3988 2381 
L 3369 3000 
L 3822 3453 
L 5050 2225 
z
" transform="scale(0.015625)"/>
      <path id="DejaVuSans-Bold-50" d="M 588 4666 
L 2584 4666 
Q 3475 4666 3951 4270 
Q 4428 3875 4428 3144 
Q 4428 2409 3951 2014 
Q 3475 1619 2584 1619 
L 1791 1619 
L 1791 0 
L 588 0 
L 588 4666 
z
M 1791 3794 
L 1791 2491 
L 2456 2491 
Q 2806 2491 2997 2661 
Q 3188 2831 3188 3144 
Q 3188 3456 2997 3625 
Q 2806 3794 2456 3794 
L 1791 3794 
z
" transform="scale(0.015625)"/>
     </defs>
     <use xlink:href="#DejaVuSans-Bold-46"/>
     <use xlink:href="#DejaVuSans-Bold-69" transform="translate(68.310547 0)"/>
     <use xlink:href="#DejaVuSans-Bold-67" transform="translate(102.587891 0)"/>
     <use xlink:href="#DejaVuSans-Bold-75" transform="translate(174.169922 0)"/>
     <use xlink:href="#DejaVuSans-Bold-72" transform="translate(245.361328 0)"/>
     <use xlink:href="#DejaVuSans-Bold-65" transform="translate(294.677734 0)"/>
     <use xlink:href="#DejaVuSans-Bold-20" transform="translate(362.5 0)"/>
     <use xlink:href="#DejaVuSans-Bold-31" transform="translate(397.314453 0)"/>
     <use xlink:href="#DejaVuSans-Bold-3a" transform="translate(466.894531 0)"/>
     <use xlink:href="#DejaVuSans-Bold-20" transform="translate(506.884766 0)"/>
     <use xlink:href="#DejaVuSans-Bold-52" transform="translate(541.699219 0)"/>
     <use xlink:href="#DejaVuSans-Bold-4f" transform="translate(618.701172 0)"/>
     <use xlink:href="#DejaVuSans-Bold-43" transform="translate(703.710938 0)"/>
     <use xlink:href="#DejaVuSans-Bold-4b" transform="translate(777.099609 0)"/>
     <use xlink:href="#DejaVuSans-Bold-2192" transform="translate(854.589844 0)"/>
     <use xlink:href="#DejaVuSans-Bold-4c" transform="translate(938.378906 0)"/>
     <use xlink:href="#DejaVuSans-Bold-49" transform="translate(1002.099609 0)"/>
     <use xlink:href="#DejaVuSans-Bold-4d" transform="translate(1039.306641 0)"/>
     <use xlink:href="#DejaVuSans-Bold-4b" transform="translate(1138.818359 0)"/>
     <use xlink:href="#DejaVuSans-Bold-32" transform="translate(1216.308594 0)"/>
     <use xlink:href="#DejaVuSans-Bold-2192" transform="translate(1285.888672 0)"/>
     <use xlink:href="#DejaVuSans-Bold-43" transform="translate(1369.677734 0)"/>
     <use xlink:href="#DejaVuSans-Bold-46" transform="translate(1443.066406 0)"/>
     <use xlink:href="#DejaVuSans-Bold-4c" transform="translate(1511.376953 0)"/>
     <use xlink:href="#DejaVuSans-Bold-32" transform="translate(1575.097656 0)"/>
     <use xlink:href="#DejaVuSans-Bold-20" transform="translate(1644.677734 0)"/>
     <use xlink:href="#DejaVuSans-Bold-50" transform="translate(1679.492188 0)"/>
     <use xlink:href="#DejaVuSans-Bold-61" transform="translate(1750.158203 0)"/>
     <use xlink:href="#DejaVuSans-Bold-74" transform="translate(1817.638672 0)"/>
     <use xlink:href="#DejaVuSans-Bold-68" transform="translate(1865.441406 0)"/>
     <use xlink:href="#DejaVuSans-Bold-6f" transform="translate(1936.632812 0)"/>
     <use xlink:href="#DejaVuSans-Bold-6c" transform="translate(2005.333984 0)"/>
     <use xlink:href="#DejaVuSans-Bold-6f" transform="translate(2039.611328 0)"/>
     <use xlink:href="#DejaVuSans-Bold-67" transform="translate(2108.3125 0)"/>
     <use xlink:href="#DejaVuSans-Bold-69" transform="translate(2179.894531 0)"/>
     <use xlink:href="#DejaVuSans-Bold-63" transform="translate(2214.171875 0)"/>
     <use xlink:href="#DejaVuSans-Bold-61" transform="translate(2273.449219 0)"/>
     <use xlink:href="#DejaVuSans-Bold-6c" transform="translate(2340.929688 0)"/>
     <use xlink:href="#DejaVuSans-Bold-20" transform="translate(2375.207031 0)"/>
     <use xlink:href="#DejaVuSans-Bold-43" transform="translate(2410.021484 0)"/>
     <use xlink:href="#DejaVuSans-Bold-61" transform="translate(2483.410156 0)"/>
     <use xlink:href="#DejaVuSans-Bold-73" transform="translate(2550.890625 0)"/>
     <use xlink:href="#DejaVuSans-Bold-63" transform="translate(2610.412109 0)"/>
     <use xlink:href="#DejaVuSans-Bold-61" transform="translate(2669.689453 0)"/>
     <use xlink:href="#DejaVuSans-Bold-64" transform="translate(2737.169922 0)"/>
     <use xlink:href="#DejaVuSans-Bold-65" transform="translate(2808.751953 0)"/>
     <use xlink:href="#DejaVuSans-Bold-20" transform="translate(2876.574219 0)"/>
     <use xlink:href="#DejaVuSans-Bold-69" transform="translate(2911.388672 0)"/>
     <use xlink:href="#DejaVuSans-Bold-6e" transform="translate(2945.666016 0)"/>
     <use xlink:href="#DejaVuSans-Bold-20" transform="translate(3016.857422 0)"/>
     <use xlink:href="#DejaVuSans-Bold-53" transform="translate(3051.671875 0)"/>
     <use xlink:href="#DejaVuSans-Bold-4d" transform="translate(3123.693359 0)"/>
     <use xlink:href="#DejaVuSans-Bold-41" transform="translate(3223.205078 0)"/>
    </g>
    <!-- with Pharmacological Intervention Points -->
    <g transform="translate(134.410781 31.736687) scale(0.13 -0.13)">
     <defs>
      <path id="DejaVuSans-Bold-77" d="M 225 3500 
L 1313 3500 
L 1900 1088 
L 2491 3500 
L 3425 3500 
L 4013 1113 
L 4603 3500 
L 5691 3500 
L 4769 0 
L 3547 0 
L 2956 2406 
L 2369 0 
L 1147 0 
L 225 3500 
z
" transform="scale(0.015625)"/>
     </defs>
     <use xlink:href="#DejaVuSans-Bold-77"/>
     <use xlink:href="#DejaVuSans-Bold-69" transform="translate(92.382812 0)"/>
     <use xlink:href="#DejaVuSans-Bold-74" transform="translate(126.660156 0)"/>
     <use xlink:href="#DejaVuSans-Bold-68" transform="translate(174.462891 0)"/>
     <use xlink:href="#DejaVuSans-Bold-20" transform="translate(245.654297 0)"/>
     <use xlink:href="#DejaVuSans-Bold-50" transform="translate(280.46875 0)"/>
     <use xlink:href="#DejaVuSans-Bold-68" transform="translate(353.759766 0)"/>
     <use xlink:href="#DejaVuSans-Bold-61" transform="translate(424.951172 0)"/>
     <use xlink:href="#DejaVuSans-Bold-72" transform="translate(492.431641 0)"/>
     <use xlink:href="#DejaVuSans-Bold-6d" transform="translate(541.748047 0)"/>
     <use xlink:href="#DejaVuSans-Bold-61" transform="translate(645.947266 0)"/>
     <use xlink:href="#DejaVuSans-Bold-63" transform="translate(713.427734 0)"/>
     <use xlink:href="#DejaVuSans-Bold-6f" transform="translate(772.705078 0)"/>
     <use xlink:href="#DejaVuSans-Bold-6c" transform="translate(841.40625 0)"/>
     <use xlink:href="#DejaVuSans-Bold-6f" transform="translate(875.683594 0)"/>
     <use xlink:href="#DejaVuSans-Bold-67" transform="translate(944.384766 0)"/>
     <use xlink:href="#DejaVuSans-Bold-69" transform="translate(1015.966797 0)"/>
     <use xlink:href="#DejaVuSans-Bold-63" transform="translate(1050.244141 0)"/>
     <use xlink:href="#DejaVuSans-Bold-61" transform="translate(1109.521484 0)"/>
     <use xlink:href="#DejaVuSans-Bold-6c" transform="translate(1177.001953 0)"/>
     <use xlink:href="#DejaVuSans-Bold-20" transform="translate(1211.279297 0)"/>
     <use xlink:href="#DejaVuSans-Bold-49" transform="translate(1246.09375 0)"/>
     <use xlink:href="#DejaVuSans-Bold-6e" transform="translate(1283.300781 0)"/>
     <use xlink:href="#DejaVuSans-Bold-74" transform="translate(1354.492188 0)"/>
     <use xlink:href="#DejaVuSans-Bold-65" transform="translate(1402.294922 0)"/>
     <use xlink:href="#DejaVuSans-Bold-72" transform="translate(1470.117188 0)"/>
     <use xlink:href="#DejaVuSans-Bold-76" transform="translate(1519.433594 0)"/>
     <use xlink:href="#DejaVuSans-Bold-65" transform="translate(1584.619141 0)"/>
     <use xlink:href="#DejaVuSans-Bold-6e" transform="translate(1652.441406 0)"/>
     <use xlink:href="#DejaVuSans-Bold-74" transform="translate(1723.632812 0)"/>
     <use xlink:href="#DejaVuSans-Bold-69" transform="translate(1771.435547 0)"/>
     <use xlink:href="#DejaVuSans-Bold-6f" transform="translate(1805.712891 0)"/>
     <use xlink:href="#DejaVuSans-Bold-6e" transform="translate(1874.414062 0)"/>
     <use xlink:href="#DejaVuSans-Bold-20" transform="translate(1945.605469 0)"/>
     <use xlink:href="#DejaVuSans-Bold-50" transform="translate(1980.419922 0)"/>
     <use xlink:href="#DejaVuSans-Bold-6f" transform="translate(2053.710938 0)"/>
     <use xlink:href="#DejaVuSans-Bold-69" transform="translate(2122.412109 0)"/>
     <use xlink:href="#DejaVuSans-Bold-6e" transform="translate(2156.689453 0)"/>
     <use xlink:href="#DejaVuSans-Bold-74" transform="translate(2227.880859 0)"/>
     <use xlink:href="#DejaVuSans-Bold-73" transform="translate(2275.683594 0)"/>
    </g>
   </g>
   <g id="legend_1">
    <g id="patch_19">
     <path d="M 13.5 425.316687 
L 153.824062 425.316687 
Q 155.624062 425.316687 155.624062 423.516687 
L 155.624062 397.996062 
Q 155.624062 396.196062 153.824062 396.196062 
L 13.5 396.196062 
Q 11.7 396.196062 11.7 397.996062 
L 11.7 423.516687 
Q 11.7 425.316687 13.5 425.316687 
z
" style="fill: #ffffff; opacity: 0.9; stroke: #cccccc; stroke-linejoin: miter"/>
    </g>
    <g id="patch_20">
     <path d="M 15.3 406.634656 
L 33.3 406.634656 
L 33.3 400.334656 
L 15.3 400.334656 
z
" style="fill: #d32f2f; stroke: #d32f2f; stroke-linejoin: miter"/>
    </g>
    <g id="text_11">
     <!-- Pathological cascade -->
     <g transform="translate(40.5 406.634656) scale(0.09 -0.09)">
      <defs>
       <path id="DejaVuSans-50" d="M 1259 4147 
L 1259 2394 
L 2053 2394 
Q 2494 2394 2734 2622 
Q 2975 2850 2975 3272 
Q 2975 3691 2734 3919 
Q 2494 4147 2053 4147 
L 1259 4147 
z
M 628 4666 
L 2053 4666 
Q 2838 4666 3239 4311 
Q 3641 3956 3641 3272 
Q 3641 2581 3239 2228 
Q 2838 1875 2053 1875 
L 1259 1875 
L 1259 0 
L 628 0 
L 628 4666 
z
" transform="scale(0.015625)"/>
       <path id="DejaVuSans-61" d="M 2194 1759 
Q 1497 1759 1228 1600 
Q 959 1441 959 1056 
Q 959 750 1161 570 
Q 1363 391 1709 391 
Q 2188 391 2477 730 
Q 2766 1069 2766 1631 
L 2766 1759 
L 2194 1759 
z
M 3341 1997 
L 3341 0 
L 2766 0 
L 2766 531 
Q 2569 213 2275 61 
Q 1981 -91 1556 -91 
Q 1019 -91 701 211 
Q 384 513 384 1019 
Q 384 1609 779 1909 
Q 1175 2209 1959 2209 
L 2766 2209 
L 2766 2266 
Q 2766 2663 2505 2880 
Q 2244 3097 1772 3097 
Q 1472 3097 1187 3025 
Q 903 2953 641 2809 
L 641 3341 
Q 956 3463 1253 3523 
Q 1550 3584 1831 3584 
Q 2591 3584 2966 3190 
Q 3341 2797 3341 1997 
z
" transform="scale(0.015625)"/>
       <path id="DejaVuSans-74" d="M 1172 4494 
L 1172 3500 
L 2356 3500 
L 2356 3053 
L 1172 3053 
L 1172 1153 
Q 1172 725 1289 603 
Q 1406 481 1766 481 
L 2356 481 
L 2356 0 
L 1766 0 
Q 1100 0 847 248 
Q 594 497 594 1153 
L 594 3053 
L 172 3053 
L 172 3500 
L 594 3500 
L 594 4494 
L 1172 4494 
z
" transform="scale(0.015625)"/>
       <path id="DejaVuSans-68" d="M 3513 2113 
L 3513 0 
L 2938 0 
L 2938 2094 
Q 2938 2591 2744 2837 
Q 2550 3084 2163 3084 
Q 1697 3084 1428 2787 
Q 1159 2491 1159 1978 
L 1159 0 
L 581 0 
L 581 4863 
L 1159 4863 
L 1159 2956 
Q 1366 3272 1645 3428 
Q 1925 3584 2291 3584 
Q 2894 3584 3203 3211 
Q 3513 2838 3513 2113 
z
" transform="scale(0.015625)"/>
       <path id="DejaVuSans-6f" d="M 1959 3097 
Q 1497 3097 1228 2736 
Q 959 2375 959 1747 
Q 959 1119 1226 758 
Q 1494 397 1959 397 
Q 2419 397 2687 759 
Q 2956 1122 2956 1747 
Q 2956 2369 2687 2733 
Q 2419 3097 1959 3097 
z
M 1959 3584 
Q 2709 3584 3137 3096 
Q 3566 2609 3566 1747 
Q 3566 888 3137 398 
Q 2709 -91 1959 -91 
Q 1206 -91 779 398 
Q 353 888 353 1747 
Q 353 2609 779 3096 
Q 1206 3584 1959 3584 
z
" transform="scale(0.015625)"/>
       <path id="DejaVuSans-6c" d="M 603 4863 
L 1178 4863 
L 1178 0 
L 603 0 
L 603 4863 
z
" transform="scale(0.015625)"/>
       <path id="DejaVuSans-67" d="M 2906 1791 
Q 2906 2416 2648 2759 
Q 2391 3103 1925 3103 
Q 1463 3103 1205 2759 
Q 947 2416 947 1791 
Q 947 1169 1205 825 
Q 1463 481 1925 481 
Q 2391 481 2648 825 
Q 2906 1169 2906 1791 
z
M 3481 434 
Q 3481 -459 3084 -895 
Q 2688 -1331 1869 -1331 
Q 1566 -1331 1297 -1286 
Q 1028 -1241 775 -1147 
L 775 -588 
Q 1028 -725 1275 -790 
Q 1522 -856 1778 -856 
Q 2344 -856 2625 -561 
Q 2906 -266 2906 331 
L 2906 616 
Q 2728 306 2450 153 
Q 2172 0 1784 0 
Q 1141 0 747 490 
Q 353 981 353 1791 
Q 353 2603 747 3093 
Q 1141 3584 1784 3584 
Q 2172 3584 2450 3431 
Q 2728 3278 2906 2969 
L 2906 3500 
L 3481 3500 
L 3481 434 
z
" transform="scale(0.015625)"/>
       <path id="DejaVuSans-69" d="M 603 3500 
L 1178 3500 
L 1178 0 
L 603 0 
L 603 3500 
z
M 603 4863 
L 1178 4863 
L 1178 4134 
L 603 4134 
L 603 4863 
z
" transform="scale(0.015625)"/>
       <path id="DejaVuSans-63" d="M 3122 3366 
L 3122 2828 
Q 2878 2963 2633 3030 
Q 2388 3097 2138 3097 
Q 1578 3097 1268 2742 
Q 959 2388 959 1747 
Q 959 1106 1268 751 
Q 1578 397 2138 397 
Q 2388 397 2633 464 
Q 2878 531 3122 666 
L 3122 134 
Q 2881 22 2623 -34 
Q 2366 -91 2075 -91 
Q 1284 -91 818 406 
Q 353 903 353 1747 
Q 353 2603 823 3093 
Q 1294 3584 2113 3584 
Q 2378 3584 2631 3529 
Q 2884 3475 3122 3366 
z
" transform="scale(0.015625)"/>
       <path id="DejaVuSans-20" transform="scale(0.015625)"/>
       <path id="DejaVuSans-73" d="M 2834 3397 
L 2834 2853 
Q 2591 2978 2328 3040 
Q 2066 3103 1784 3103 
Q 1356 3103 1142 2972 
Q 928 2841 928 2578 
Q 928 2378 1081 2264 
Q 1234 2150 1697 2047 
L 1894 2003 
Q 2506 1872 2764 1633 
Q 3022 1394 3022 966 
Q 3022 478 2636 193 
Q 2250 -91 1575 -91 
Q 1294 -91 989 -36 
Q 684 19 347 128 
L 347 722 
Q 666 556 975 473 
Q 1284 391 1588 391 
Q 1994 391 2212 530 
Q 2431 669 2431 922 
Q 2431 1156 2273 1281 
Q 2116 1406 1581 1522 
L 1381 1569 
Q 847 1681 609 1914 
Q 372 2147 372 2553 
Q 372 3047 722 3315 
Q 1072 3584 1716 3584 
Q 2034 3584 2315 3537 
Q 2597 3491 2834 3397 
z
" transform="scale(0.015625)"/>
       <path id="DejaVuSans-64" d="M 2906 2969 
L 2906 4863 
L 3481 4863 
L 3481 0 
L 2906 0 
L 2906 525 
Q 2725 213 2448 61 
Q 2172 -91 1784 -91 
Q 1150 -91 751 415 
Q 353 922 353 1747 
Q 353 2572 751 3078 
Q 1150 3584 1784 3584 
Q 2172 3584 2448 3432 
Q 2725 3281 2906 2969 
z
M 947 1747 
Q 947 1113 1208 752 
Q 1469 391 1925 391 
Q 2381 391 2643 752 
Q 2906 1113 2906 1747 
Q 2906 2381 2643 2742 
Q 2381 3103 1925 3103 
Q 1469 3103 1208 2742 
Q 947 2381 947 1747 
z
" transform="scale(0.015625)"/>
       <path id="DejaVuSans-65" d="M 3597 1894 
L 3597 1613 
L 953 1613 
Q 991 1019 1311 708 
Q 1631 397 2203 397 
Q 2534 397 2845 478 
Q 3156 559 3463 722 
L 3463 178 
Q 3153 47 2828 -22 
Q 2503 -91 2169 -91 
Q 1331 -91 842 396 
Q 353 884 353 1716 
Q 353 2575 817 3079 
Q 1281 3584 2069 3584 
Q 2775 3584 3186 3129 
Q 3597 2675 3597 1894 
z
M 3022 2063 
Q 3016 2534 2758 2815 
Q 2500 3097 2075 3097 
Q 1594 3097 1305 2825 
Q 1016 2553 972 2059 
L 3022 2063 
z
" transform="scale(0.015625)"/>
      </defs>
      <use xlink:href="#DejaVuSans-50"/>
      <use xlink:href="#DejaVuSans-61" transform="translate(55.802734 0)"/>
      <use xlink:href="#DejaVuSans-74" transform="translate(117.082031 0)"/>
      <use xlink:href="#DejaVuSans-68" transform="translate(156.291016 0)"/>
      <use xlink:href="#DejaVuSans-6f" transform="translate(219.669922 0)"/>
      <use xlink:href="#DejaVuSans-6c" transform="translate(280.851562 0)"/>
      <use xlink:href="#DejaVuSans-6f" transform="translate(308.634766 0)"/>
      <use xlink:href="#DejaVuSans-67" transform="translate(369.816406 0)"/>
      <use xlink:href="#DejaVuSans-69" transform="translate(433.292969 0)"/>
      <use xlink:href="#DejaVuSans-63" transform="translate(461.076172 0)"/>
      <use xlink:href="#DejaVuSans-61" transform="translate(516.056641 0)"/>
      <use xlink:href="#DejaVuSans-6c" transform="translate(577.335938 0)"/>
      <use xlink:href="#DejaVuSans-20" transform="translate(605.119141 0)"/>
      <use xlink:href="#DejaVuSans-63" transform="translate(636.90625 0)"/>
      <use xlink:href="#DejaVuSans-61" transform="translate(691.886719 0)"/>
      <use xlink:href="#DejaVuSans-73" transform="translate(753.166016 0)"/>
      <use xlink:href="#DejaVuSans-63" transform="translate(805.265625 0)"/>
      <use xlink:href="#DejaVuSans-61" transform="translate(860.246094 0)"/>
      <use xlink:href="#DejaVuSans-64" transform="translate(921.525391 0)"/>
      <use xlink:href="#DejaVuSans-65" transform="translate(985.001953 0)"/>
     </g>
    </g>
    <g id="patch_21">
     <path d="M 15.3 419.844969 
L 33.3 419.844969 
L 33.3 413.544969 
L 15.3 413.544969 
z
" style="fill: #2e7d32; stroke: #2e7d32; stroke-linejoin: miter"/>
    </g>
    <g id="text_12">
     <!-- Therapeutic intervention -->
     <g transform="translate(40.5 419.844969) scale(0.09 -0.09)">
      <defs>
       <path id="DejaVuSans-54" d="M -19 4666 
L 3928 4666 
L 3928 4134 
L 2272 4134 
L 2272 0 
L 1638 0 
L 1638 4134 
L -19 4134 
L -19 4666 
z
" transform="scale(0.015625)"/>
       <path id="DejaVuSans-72" d="M 2631 2963 
Q 2534 3019 2420 3045 
Q 2306 3072 2169 3072 
Q 1681 3072 1420 2755 
Q 1159 2438 1159 1844 
L 1159 0 
L 581 0 
L 581 3500 
L 1159 3500 
L 1159 2956 
Q 1341 3275 1631 3429 
Q 1922 3584 2338 3584 
Q 2397 3584 2469 3576 
Q 2541 3569 2628 3553 
L 2631 2963 
z
" transform="scale(0.015625)"/>
       <path id="DejaVuSans-70" d="M 1159 525 
L 1159 -1331 
L 581 -1331 
L 581 3500 
L 1159 3500 
L 1159 2969 
Q 1341 3281 1617 3432 
Q 1894 3584 2278 3584 
Q 2916 3584 3314 3078 
Q 3713 2572 3713 1747 
Q 3713 922 3314 415 
Q 2916 -91 2278 -91 
Q 1894 -91 1617 61 
Q 1341 213 1159 525 
z
M 3116 1747 
Q 3116 2381 2855 2742 
Q 2594 3103 2138 3103 
Q 1681 3103 1420 2742 
Q 1159 2381 1159 1747 
Q 1159 1113 1420 752 
Q 1681 391 2138 391 
Q 2594 391 2855 752 
Q 3116 1113 3116 1747 
z
" transform="scale(0.015625)"/>
       <path id="DejaVuSans-75" d="M 544 1381 
L 544 3500 
L 1119 3500 
L 1119 1403 
Q 1119 906 1312 657 
Q 1506 409 1894 409 
Q 2359 409 2629 706 
Q 2900 1003 2900 1516 
L 2900 3500 
L 3475 3500 
L 3475 0 
L 2900 0 
L 2900 538 
Q 2691 219 2414 64 
Q 2138 -91 1772 -91 
Q 1169 -91 856 284 
Q 544 659 544 1381 
z
M 1991 3584 
L 1991 3584 
z
" transform="scale(0.015625)"/>
       <path id="DejaVuSans-6e" d="M 3513 2113 
L 3513 0 
L 2938 0 
L 2938 2094 
Q 2938 2591 2744 2837 
Q 2550 3084 2163 3084 
Q 1697 3084 1428 2787 
Q 1159 2491 1159 1978 
L 1159 0 
L 581 0 
L 581 3500 
L 1159 3500 
L 1159 2956 
Q 1366 3272 1645 3428 
Q 1925 3584 2291 3584 
Q 2894 3584 3203 3211 
Q 3513 2838 3513 2113 
z
" transform="scale(0.015625)"/>
       <path id="DejaVuSans-76" d="M 191 3500 
L 800 3500 
L 1894 563 
L 2988 3500 
L 3597 3500 
L 2284 0 
L 1503 0 
L 191 3500 
z
" transform="scale(0.015625)"/>
      </defs>
      <use xlink:href="#DejaVuSans-54"/>
      <use xlink:href="#DejaVuSans-68" transform="translate(61.083984 0)"/>
      <use xlink:href="#DejaVuSans-65" transform="translate(124.462891 0)"/>
      <use xlink:href="#DejaVuSans-72" transform="translate(185.986328 0)"/>
      <use xlink:href="#DejaVuSans-61" transform="translate(227.099609 0)"/>
      <use xlink:href="#DejaVuSans-70" transform="translate(288.378906 0)"/>
      <use xlink:href="#DejaVuSans-65" transform="translate(351.855469 0)"/>
      <use xlink:href="#DejaVuSans-75" transform="translate(413.378906 0)"/>
      <use xlink:href="#DejaVuSans-74" transform="translate(476.757812 0)"/>
      <use xlink:href="#DejaVuSans-69" transform="translate(515.966797 0)"/>
      <use xlink:href="#DejaVuSans-63" transform="translate(543.75 0)"/>
      <use xlink:href="#DejaVuSans-20" transform="translate(598.730469 0)"/>
      <use xlink:href="#DejaVuSans-69" transform="translate(630.517578 0)"/>
      <use xlink:href="#DejaVuSans-6e" transform="translate(658.300781 0)"/>
      <use xlink:href="#DejaVuSans-74" transform="translate(721.679688 0)"/>
      <use xlink:href="#DejaVuSans-65" transform="translate(760.888672 0)"/>
      <use xlink:href="#DejaVuSans-72" transform="translate(822.412109 0)"/>
      <use xlink:href="#DejaVuSans-76" transform="translate(863.525391 0)"/>
      <use xlink:href="#DejaVuSans-65" transform="translate(922.705078 0)"/>
      <use xlink:href="#DejaVuSans-6e" transform="translate(984.228516 0)"/>
      <use xlink:href="#DejaVuSans-74" transform="translate(1047.607422 0)"/>
      <use xlink:href="#DejaVuSans-69" transform="translate(1086.816406 0)"/>
      <use xlink:href="#DejaVuSans-6f" transform="translate(1114.599609 0)"/>
      <use xlink:href="#DejaVuSans-6e" transform="translate(1175.78125 0)"/>
     </g>
    </g>
   </g>
  </g>
 </g>
 <defs>
  <clipPath id="p207c144972">
   <rect x="7.2" y="41.736687" width="558" height="388.08"/>
  </clipPath>
 </defs>
</svg>
