<?xml version="1.0" encoding="utf-8" standalone="no"?>
<!DOCTYPE svg PUBLIC "-//W3C//DTD SVG 1.1//EN"
  "http://www.w3.org/Graphics/SVG/1.1/DTD/svg11.dtd">
<svg xmlns:xlink="http://www.w3.org/1999/xlink" width="500.648856pt" height="474.46915pt" viewBox="0 0 500.648856 474.46915" xmlns="http://www.w3.org/2000/svg" version="1.1">
 <metadata>
  <rdf:RDF xmlns:dc="http://purl.org/dc/elements/1.1/" xmlns:cc="http://creativecommons.org/ns#" xmlns:rdf="http://www.w3.org/1999/02/22-rdf-syntax-ns#">
   <cc:Work>
    <dc:type rdf:resource="http://purl.org/dc/dcmitype/StillImage"/>
    <dc:date>2026-03-24T19:06:30.868373</dc:date>
    <dc:format>image/svg+xml</dc:format>
    <dc:creator>
     <cc:Agent>
      <dc:title>Matplotlib v3.10.8, https://matplotlib.org/</dc:title>
     </cc:Agent>
    </dc:creator>
   </cc:Work>
  </rdf:RDF>
 </metadata>
 <defs>
  <style type="text/css">*{stroke-linejoin: round; stroke-linecap: butt}</style>
 </defs>
 <g id="figure_1">
  <g id="patch_1">
   <path d="M 0 474.46915 
L 500.648856 474.46915 
L 500.648856 0 
L 0 0 
z
" style="fill: #ffffff"/>
  </g>
  <g id="axes_1">
   <g id="patch_2">
    <path d="M 438.423156 253.50825 
C 438.423156 227.452106 433.290664 201.649324 423.319409 177.576586 
C 413.348154 153.503848 398.732053 131.629306 380.307577 113.20483 
C 361.8831 94.780353 340.008559 80.164252 315.93582 70.192997 
C 291.863082 60.221742 266.060301 55.08925 240.004156 55.08925 
C 213.948012 55.08925 188.145231 60.221742 164.072492 70.192997 
C 139.999754 80.164252 118.125212 94.780353 99.700736 113.20483 
C 81.276259 131.629306 66.660158 153.503848 56.688903 177.576586 
C 46.717649 201.649324 41.585156 227.452106 41.585156 253.50825 
C 41.585156 279.564394 46.717649 305.367176 56.688903 329.439914 
C 66.660158 353.512652 81.276259 375.387194 99.700736 393.81167 
C 118.125212 412.236147 139.999754 426.852248 164.072492 436.823503 
C 188.145231 446.794758 213.948012 451.92725 240.004156 451.92725 
C 266.060301 451.92725 291.863082 446.794758 315.93582 436.823503 
C 340.008559 426.852248 361.8831 412.236147 380.307577 393.81167 
C 398.732053 375.387194 413.348154 353.512652 423.319409 329.439914 
C 433.290664 305.367176 438.423156 279.564394 438.423156 253.50825 
M 240.004156 253.50825 
C 240.004156 253.50825 240.004156 253.50825 240.004156 253.50825 
C 240.004156 253.50825 240.004156 253.50825 240.004156 253.50825 
C 240.004156 253.50825 240.004156 253.50825 240.004156 253.50825 
C 240.004156 253.50825 240.004156 253.50825 240.004156 253.50825 
C 240.004156 253.50825 240.004156 253.50825 240.004156 253.50825 
C 240.004156 253.50825 240.004156 253.50825 240.004156 253.50825 
C 240.004156 253.50825 240.004156 253.50825 240.004156 253.50825 
C 240.004156 253.50825 240.004156 253.50825 240.004156 253.50825 
C 240.004156 253.50825 240.004156 253.50825 240.004156 253.50825 
C 240.004156 253.50825 240.004156 253.50825 240.004156 253.50825 
C 240.004156 253.50825 240.004156 253.50825 240.004156 253.50825 
C 240.004156 253.50825 240.004156 253.50825 240.004156 253.50825 
C 240.004156 253.50825 240.004156 253.50825 240.004156 253.50825 
C 240.004156 253.50825 240.004156 253.50825 240.004156 253.50825 
C 240.004156 253.50825 240.004156 253.50825 240.004156 253.50825 
C 240.004156 253.50825 240.004156 253.50825 240.004156 253.50825 
z
" style="fill: #ffffff"/>
   </g>
   <g id="patch_3">
    <path d="M 427.205246 253.50825 
L 285.035042 175.512468 
L 214.873914 209.981394 
L 166.44439 253.50825 
L 229.226646 272.175445 
L 243.702705 259.914324 
z
" clip-path="url(#pd5fa45a007)" style="fill: #e53935; opacity: 0.2; stroke: #e53935; stroke-linejoin: miter"/>
   </g>
   <g id="matplotlib.axis_1">
    <g id="xtick_1">
     <g id="line2d_1">
      <path d="M 240.004156 253.50825 
L 438.423156 253.50825 
" clip-path="url(#pd5fa45a007)" style="fill: none; stroke: #b0b0b0; stroke-opacity: 0.3; stroke-width: 0.8; stroke-linecap: square"/>
     </g>
     <g id="text_1">
      <!-- LIMK2 -->
      <g style="fill: #d32f2f" transform="translate(435.048156 250.668719) scale(0.1 -0.1)">
       <defs>
        <path id="DejaVuSans-Bold-4c" d="M 588 4666 
L 1791 4666 
L 1791 909 
L 3903 909 
L 3903 0 
L 588 0 
L 588 4666 
z
" transform="scale(0.015625)"/>
        <path id="DejaVuSans-Bold-49" d="M 588 4666 
L 1791 4666 
L 1791 0 
L 588 0 
L 588 4666 
z
" transform="scale(0.015625)"/>
        <path id="DejaVuSans-Bold-4d" d="M 588 4666 
L 2119 4666 
L 3181 2169 
L 4250 4666 
L 5778 4666 
L 5778 0 
L 4641 0 
L 4641 3413 
L 3566 897 
L 2803 897 
L 1728 3413 
L 1728 0 
L 588 0 
L 588 4666 
z
" transform="scale(0.015625)"/>
        <path id="DejaVuSans-Bold-4b" d="M 588 4666 
L 1791 4666 
L 1791 2963 
L 3525 4666 
L 4922 4666 
L 2675 2456 
L 5153 0 
L 3647 0 
L 1791 1838 
L 1791 0 
L 588 0 
L 588 4666 
z
" transform="scale(0.015625)"/>
        <path id="DejaVuSans-Bold-32" d="M 1844 884 
L 3897 884 
L 3897 0 
L 506 0 
L 506 884 
L 2209 2388 
Q 2438 2594 2547 2791 
Q 2656 2988 2656 3200 
Q 2656 3528 2436 3728 
Q 2216 3928 1850 3928 
Q 1569 3928 1234 3808 
Q 900 3688 519 3450 
L 519 4475 
Q 925 4609 1322 4679 
Q 1719 4750 2100 4750 
Q 2938 4750 3402 4381 
Q 3866 4013 3866 3353 
Q 3866 2972 3669 2642 
Q 3472 2313 2841 1759 
L 1844 884 
z
" transform="scale(0.015625)"/>
       </defs>
       <use xlink:href="#DejaVuSans-Bold-4c"/>
       <use xlink:href="#DejaVuSans-Bold-49" transform="translate(63.720703 0)"/>
       <use xlink:href="#DejaVuSans-Bold-4d" transform="translate(100.927734 0)"/>
       <use xlink:href="#DejaVuSans-Bold-4b" transform="translate(200.439453 0)"/>
       <use xlink:href="#DejaVuSans-Bold-32" transform="translate(277.929688 0)"/>
      </g>
      <!-- (1.058) -->
      <g style="fill: #d32f2f" transform="translate(432.038 261.866531) scale(0.1 -0.1)">
       <defs>
        <path id="DejaVuSans-Bold-28" d="M 2413 -844 
L 1484 -844 
Q 1006 -72 778 623 
Q 550 1319 550 2003 
Q 550 2688 779 3389 
Q 1009 4091 1484 4856 
L 2413 4856 
Q 2013 4116 1813 3408 
Q 1613 2700 1613 2009 
Q 1613 1319 1811 609 
Q 2009 -100 2413 -844 
z
" transform="scale(0.015625)"/>
        <path id="DejaVuSans-Bold-31" d="M 750 831 
L 1813 831 
L 1813 3847 
L 722 3622 
L 722 4441 
L 1806 4666 
L 2950 4666 
L 2950 831 
L 4013 831 
L 4013 0 
L 750 0 
L 750 831 
z
" transform="scale(0.015625)"/>
        <path id="DejaVuSans-Bold-2e" d="M 653 1209 
L 1778 1209 
L 1778 0 
L 653 0 
L 653 1209 
z
" transform="scale(0.015625)"/>
        <path id="DejaVuSans-Bold-30" d="M 2944 2338 
Q 2944 3213 2780 3570 
Q 2616 3928 2228 3928 
Q 1841 3928 1675 3570 
Q 1509 3213 1509 2338 
Q 1509 1453 1675 1090 
Q 1841 728 2228 728 
Q 2613 728 2778 1090 
Q 2944 1453 2944 2338 
z
M 4147 2328 
Q 4147 1169 3647 539 
Q 3147 -91 2228 -91 
Q 1306 -91 806 539 
Q 306 1169 306 2328 
Q 306 3491 806 4120 
Q 1306 4750 2228 4750 
Q 3147 4750 3647 4120 
Q 4147 3491 4147 2328 
z
" transform="scale(0.015625)"/>
        <path id="DejaVuSans-Bold-35" d="M 678 4666 
L 3669 4666 
L 3669 3781 
L 1638 3781 
L 1638 3059 
Q 1775 3097 1914 3117 
Q 2053 3138 2203 3138 
Q 3056 3138 3531 2711 
Q 4006 2284 4006 1522 
Q 4006 766 3489 337 
Q 2972 -91 2053 -91 
Q 1656 -91 1267 -14 
Q 878 63 494 219 
L 494 1166 
Q 875 947 1217 837 
Q 1559 728 1863 728 
Q 2300 728 2551 942 
Q 2803 1156 2803 1522 
Q 2803 1891 2551 2103 
Q 2300 2316 1863 2316 
Q 1603 2316 1309 2248 
Q 1016 2181 678 2041 
L 678 4666 
z
" transform="scale(0.015625)"/>
        <path id="DejaVuSans-Bold-38" d="M 2228 2088 
Q 1891 2088 1709 1903 
Q 1528 1719 1528 1375 
Q 1528 1031 1709 848 
Q 1891 666 2228 666 
Q 2563 666 2741 848 
Q 2919 1031 2919 1375 
Q 2919 1722 2741 1905 
Q 2563 2088 2228 2088 
z
M 1350 2484 
Q 925 2613 709 2878 
Q 494 3144 494 3541 
Q 494 4131 934 4440 
Q 1375 4750 2228 4750 
Q 3075 4750 3515 4442 
Q 3956 4134 3956 3541 
Q 3956 3144 3739 2878 
Q 3522 2613 3097 2484 
Q 3572 2353 3814 2058 
Q 4056 1763 4056 1313 
Q 4056 619 3595 264 
Q 3134 -91 2228 -91 
Q 1319 -91 855 264 
Q 391 619 391 1313 
Q 391 1763 633 2058 
Q 875 2353 1350 2484 
z
M 1631 3419 
Q 1631 3141 1786 2991 
Q 1941 2841 2228 2841 
Q 2509 2841 2662 2991 
Q 2816 3141 2816 3419 
Q 2816 3697 2662 3845 
Q 2509 3994 2228 3994 
Q 1941 3994 1786 3844 
Q 1631 3694 1631 3419 
z
" transform="scale(0.015625)"/>
        <path id="DejaVuSans-Bold-29" d="M 513 -844 
Q 913 -100 1113 609 
Q 1313 1319 1313 2009 
Q 1313 2700 1113 3408 
Q 913 4116 513 4856 
L 1441 4856 
Q 1916 4091 2145 3389 
Q 2375 2688 2375 2003 
Q 2375 1319 2147 623 
Q 1919 -72 1441 -844 
L 513 -844 
z
" transform="scale(0.015625)"/>
       </defs>
       <use xlink:href="#DejaVuSans-Bold-28"/>
       <use xlink:href="#DejaVuSans-Bold-31" transform="translate(45.703125 0)"/>
       <use xlink:href="#DejaVuSans-Bold-2e" transform="translate(115.283203 0)"/>
       <use xlink:href="#DejaVuSans-Bold-30" transform="translate(153.271484 0)"/>
       <use xlink:href="#DejaVuSans-Bold-35" transform="translate(222.851562 0)"/>
       <use xlink:href="#DejaVuSans-Bold-38" transform="translate(292.431641 0)"/>
       <use xlink:href="#DejaVuSans-Bold-29" transform="translate(362.011719 0)"/>
      </g>
     </g>
    </g>
    <g id="xtick_2">
     <g id="line2d_2">
      <path d="M 240.004156 253.50825 
L 339.213656 81.672355 
" clip-path="url(#pd5fa45a007)" style="fill: none; stroke: #b0b0b0; stroke-opacity: 0.3; stroke-width: 0.8; stroke-linecap: square"/>
     </g>
     <g id="text_2">
      <!-- ROCK2 -->
      <g style="fill: #d32f2f" transform="translate(327.090219 66.708469) scale(0.1 -0.1)">
       <defs>
        <path id="DejaVuSans-Bold-52" d="M 2297 2597 
Q 2675 2597 2839 2737 
Q 3003 2878 3003 3200 
Q 3003 3519 2839 3656 
Q 2675 3794 2297 3794 
L 1791 3794 
L 1791 2597 
L 2297 2597 
z
M 1791 1766 
L 1791 0 
L 588 0 
L 588 4666 
L 2425 4666 
Q 3347 4666 3776 4356 
Q 4206 4047 4206 3378 
Q 4206 2916 3982 2619 
Q 3759 2322 3309 2181 
Q 3556 2125 3751 1926 
Q 3947 1728 4147 1325 
L 4800 0 
L 3519 0 
L 2950 1159 
Q 2778 1509 2601 1637 
Q 2425 1766 2131 1766 
L 1791 1766 
z
" transform="scale(0.015625)"/>
        <path id="DejaVuSans-Bold-4f" d="M 2719 3878 
Q 2169 3878 1866 3472 
Q 1563 3066 1563 2328 
Q 1563 1594 1866 1187 
Q 2169 781 2719 781 
Q 3272 781 3575 1187 
Q 3878 1594 3878 2328 
Q 3878 3066 3575 3472 
Q 3272 3878 2719 3878 
z
M 2719 4750 
Q 3844 4750 4481 4106 
Q 5119 3463 5119 2328 
Q 5119 1197 4481 553 
Q 3844 -91 2719 -91 
Q 1597 -91 958 553 
Q 319 1197 319 2328 
Q 319 3463 958 4106 
Q 1597 4750 2719 4750 
z
" transform="scale(0.015625)"/>
        <path id="DejaVuSans-Bold-43" d="M 4288 256 
Q 3956 84 3597 -3 
Q 3238 -91 2847 -91 
Q 1681 -91 1000 561 
Q 319 1213 319 2328 
Q 319 3447 1000 4098 
Q 1681 4750 2847 4750 
Q 3238 4750 3597 4662 
Q 3956 4575 4288 4403 
L 4288 3438 
Q 3953 3666 3628 3772 
Q 3303 3878 2944 3878 
Q 2300 3878 1931 3465 
Q 1563 3053 1563 2328 
Q 1563 1606 1931 1193 
Q 2300 781 2944 781 
Q 3303 781 3628 887 
Q 3953 994 4288 1222 
L 4288 256 
z
" transform="scale(0.015625)"/>
       </defs>
       <use xlink:href="#DejaVuSans-Bold-52"/>
       <use xlink:href="#DejaVuSans-Bold-4f" transform="translate(77.001953 0)"/>
       <use xlink:href="#DejaVuSans-Bold-43" transform="translate(162.011719 0)"/>
       <use xlink:href="#DejaVuSans-Bold-4b" transform="translate(235.400391 0)"/>
       <use xlink:href="#DejaVuSans-Bold-32" transform="translate(312.890625 0)"/>
      </g>
      <!-- (0.509) -->
      <g style="fill: #d32f2f" transform="translate(325.8285 77.906281) scale(0.1 -0.1)">
       <defs>
        <path id="DejaVuSans-Bold-39" d="M 641 103 
L 641 966 
Q 928 831 1190 764 
Q 1453 697 1709 697 
Q 2247 697 2547 995 
Q 2847 1294 2900 1881 
Q 2688 1725 2447 1647 
Q 2206 1569 1925 1569 
Q 1209 1569 770 1986 
Q 331 2403 331 3084 
Q 331 3838 820 4291 
Q 1309 4744 2131 4744 
Q 3044 4744 3544 4128 
Q 4044 3513 4044 2388 
Q 4044 1231 3459 570 
Q 2875 -91 1856 -91 
Q 1528 -91 1228 -42 
Q 928 6 641 103 
z
M 2125 2350 
Q 2441 2350 2600 2554 
Q 2759 2759 2759 3169 
Q 2759 3575 2600 3781 
Q 2441 3988 2125 3988 
Q 1809 3988 1650 3781 
Q 1491 3575 1491 3169 
Q 1491 2759 1650 2554 
Q 1809 2350 2125 2350 
z
" transform="scale(0.015625)"/>
       </defs>
       <use xlink:href="#DejaVuSans-Bold-28"/>
       <use xlink:href="#DejaVuSans-Bold-30" transform="translate(45.703125 0)"/>
       <use xlink:href="#DejaVuSans-Bold-2e" transform="translate(115.283203 0)"/>
       <use xlink:href="#DejaVuSans-Bold-35" transform="translate(153.271484 0)"/>
       <use xlink:href="#DejaVuSans-Bold-30" transform="translate(222.851562 0)"/>
       <use xlink:href="#DejaVuSans-Bold-39" transform="translate(292.431641 0)"/>
       <use xlink:href="#DejaVuSans-Bold-29" transform="translate(362.011719 0)"/>
      </g>
     </g>
    </g>
    <g id="xtick_3">
     <g id="line2d_3">
      <path d="M 240.004156 253.50825 
L 140.794656 81.672355 
" clip-path="url(#pd5fa45a007)" style="fill: none; stroke: #b0b0b0; stroke-opacity: 0.3; stroke-width: 0.8; stroke-linecap: square"/>
     </g>
     <g id="text_3">
      <!-- JAK2 -->
      <g style="fill: #757575" transform="translate(120.711844 66.708469) scale(0.1 -0.1)">
       <defs>
        <path id="DejaVuSans-Bold-4a" d="M 588 4666 
L 1791 4666 
L 1791 453 
Q 1791 -419 1317 -850 
Q 844 -1281 -116 -1281 
L -359 -1281 
L -359 -372 
L -172 -372 
Q 203 -372 395 -162 
Q 588 47 588 453 
L 588 4666 
z
" transform="scale(0.015625)"/>
        <path id="DejaVuSans-Bold-41" d="M 3419 850 
L 1538 850 
L 1241 0 
L 31 0 
L 1759 4666 
L 3194 4666 
L 4922 0 
L 3713 0 
L 3419 850 
z
M 1838 1716 
L 3116 1716 
L 2478 3572 
L 1838 1716 
z
" transform="scale(0.015625)"/>
       </defs>
       <use xlink:href="#DejaVuSans-Bold-4a"/>
       <use xlink:href="#DejaVuSans-Bold-41" transform="translate(37.207031 0)"/>
       <use xlink:href="#DejaVuSans-Bold-4b" transform="translate(114.599609 0)"/>
       <use xlink:href="#DejaVuSans-Bold-32" transform="translate(192.089844 0)"/>
      </g>
      <!-- (0.284) -->
      <g style="fill: #757575" transform="translate(113.4095 77.906281) scale(0.1 -0.1)">
       <defs>
        <path id="DejaVuSans-Bold-34" d="M 2356 3675 
L 1038 1722 
L 2356 1722 
L 2356 3675 
z
M 2156 4666 
L 3494 4666 
L 3494 1722 
L 4159 1722 
L 4159 850 
L 3494 850 
L 3494 0 
L 2356 0 
L 2356 850 
L 288 850 
L 288 1881 
L 2156 4666 
z
" transform="scale(0.015625)"/>
       </defs>
       <use xlink:href="#DejaVuSans-Bold-28"/>
       <use xlink:href="#DejaVuSans-Bold-30" transform="translate(45.703125 0)"/>
       <use xlink:href="#DejaVuSans-Bold-2e" transform="translate(115.283203 0)"/>
       <use xlink:href="#DejaVuSans-Bold-32" transform="translate(153.271484 0)"/>
       <use xlink:href="#DejaVuSans-Bold-38" transform="translate(222.851562 0)"/>
       <use xlink:href="#DejaVuSans-Bold-34" transform="translate(292.431641 0)"/>
       <use xlink:href="#DejaVuSans-Bold-29" transform="translate(362.011719 0)"/>
      </g>
     </g>
    </g>
    <g id="xtick_4">
     <g id="line2d_4">
      <path d="M 240.004156 253.50825 
L 41.585156 253.50825 
" clip-path="url(#pd5fa45a007)" style="fill: none; stroke: #b0b0b0; stroke-opacity: 0.3; stroke-width: 0.8; stroke-linecap: square"/>
     </g>
     <g id="text_4">
      <!-- ABL1 -->
      <g style="fill: #757575" transform="translate(13.239844 250.668719) scale(0.1 -0.1)">
       <defs>
        <path id="DejaVuSans-Bold-42" d="M 2456 2859 
Q 2741 2859 2887 2984 
Q 3034 3109 3034 3353 
Q 3034 3594 2887 3720 
Q 2741 3847 2456 3847 
L 1791 3847 
L 1791 2859 
L 2456 2859 
z
M 2497 819 
Q 2859 819 3042 972 
Q 3225 1125 3225 1434 
Q 3225 1738 3044 1889 
Q 2863 2041 2497 2041 
L 1791 2041 
L 1791 819 
L 2497 819 
z
M 3616 2497 
Q 4003 2384 4215 2081 
Q 4428 1778 4428 1338 
Q 4428 663 3972 331 
Q 3516 0 2584 0 
L 588 0 
L 588 4666 
L 2394 4666 
Q 3366 4666 3802 4372 
Q 4238 4078 4238 3431 
Q 4238 3091 4078 2852 
Q 3919 2613 3616 2497 
z
" transform="scale(0.015625)"/>
       </defs>
       <use xlink:href="#DejaVuSans-Bold-41"/>
       <use xlink:href="#DejaVuSans-Bold-42" transform="translate(77.392578 0)"/>
       <use xlink:href="#DejaVuSans-Bold-4c" transform="translate(153.613281 0)"/>
       <use xlink:href="#DejaVuSans-Bold-31" transform="translate(217.333984 0)"/>
      </g>
      <!-- (0.416) -->
      <g style="fill: #757575" transform="translate(7.2 261.866531) scale(0.1 -0.1)">
       <defs>
        <path id="DejaVuSans-Bold-36" d="M 2316 2303 
Q 2000 2303 1842 2098 
Q 1684 1894 1684 1484 
Q 1684 1075 1842 870 
Q 2000 666 2316 666 
Q 2634 666 2792 870 
Q 2950 1075 2950 1484 
Q 2950 1894 2792 2098 
Q 2634 2303 2316 2303 
z
M 3803 4544 
L 3803 3681 
Q 3506 3822 3243 3889 
Q 2981 3956 2731 3956 
Q 2194 3956 1894 3657 
Q 1594 3359 1544 2772 
Q 1750 2925 1990 3001 
Q 2231 3078 2516 3078 
Q 3231 3078 3670 2659 
Q 4109 2241 4109 1563 
Q 4109 813 3618 361 
Q 3128 -91 2303 -91 
Q 1394 -91 895 523 
Q 397 1138 397 2266 
Q 397 3422 980 4083 
Q 1563 4744 2578 4744 
Q 2900 4744 3203 4694 
Q 3506 4644 3803 4544 
z
" transform="scale(0.015625)"/>
       </defs>
       <use xlink:href="#DejaVuSans-Bold-28"/>
       <use xlink:href="#DejaVuSans-Bold-30" transform="translate(45.703125 0)"/>
       <use xlink:href="#DejaVuSans-Bold-2e" transform="translate(115.283203 0)"/>
       <use xlink:href="#DejaVuSans-Bold-34" transform="translate(153.271484 0)"/>
       <use xlink:href="#DejaVuSans-Bold-31" transform="translate(222.851562 0)"/>
       <use xlink:href="#DejaVuSans-Bold-36" transform="translate(292.431641 0)"/>
       <use xlink:href="#DejaVuSans-Bold-29" transform="translate(362.011719 0)"/>
      </g>
     </g>
    </g>
    <g id="xtick_5">
     <g id="line2d_5">
      <path d="M 240.004156 253.50825 
L 140.794656 425.344145 
" clip-path="url(#pd5fa45a007)" style="fill: none; stroke: #b0b0b0; stroke-opacity: 0.3; stroke-width: 0.8; stroke-linecap: square"/>
     </g>
     <g id="text_5">
      <!-- MAPK14 -->
      <g style="fill: #757575" transform="translate(110.452469 434.628969) scale(0.1 -0.1)">
       <defs>
        <path id="DejaVuSans-Bold-50" d="M 588 4666 
L 2584 4666 
Q 3475 4666 3951 4270 
Q 4428 3875 4428 3144 
Q 4428 2409 3951 2014 
Q 3475 1619 2584 1619 
L 1791 1619 
L 1791 0 
L 588 0 
L 588 4666 
z
M 1791 3794 
L 1791 2491 
L 2456 2491 
Q 2806 2491 2997 2661 
Q 3188 2831 3188 3144 
Q 3188 3456 2997 3625 
Q 2806 3794 2456 3794 
L 1791 3794 
z
" transform="scale(0.015625)"/>
       </defs>
       <use xlink:href="#DejaVuSans-Bold-4d"/>
       <use xlink:href="#DejaVuSans-Bold-41" transform="translate(99.511719 0)"/>
       <use xlink:href="#DejaVuSans-Bold-50" transform="translate(176.904297 0)"/>
       <use xlink:href="#DejaVuSans-Bold-4b" transform="translate(250.195312 0)"/>
       <use xlink:href="#DejaVuSans-Bold-31" transform="translate(327.685547 0)"/>
       <use xlink:href="#DejaVuSans-Bold-34" transform="translate(397.265625 0)"/>
      </g>
      <!-- (0.122) -->
      <g style="fill: #757575" transform="translate(113.4095 445.826781) scale(0.1 -0.1)">
       <use xlink:href="#DejaVuSans-Bold-28"/>
       <use xlink:href="#DejaVuSans-Bold-30" transform="translate(45.703125 0)"/>
       <use xlink:href="#DejaVuSans-Bold-2e" transform="translate(115.283203 0)"/>
       <use xlink:href="#DejaVuSans-Bold-31" transform="translate(153.271484 0)"/>
       <use xlink:href="#DejaVuSans-Bold-32" transform="translate(222.851562 0)"/>
       <use xlink:href="#DejaVuSans-Bold-32" transform="translate(292.431641 0)"/>
       <use xlink:href="#DejaVuSans-Bold-29" transform="translate(362.011719 0)"/>
      </g>
     </g>
    </g>
    <g id="xtick_6">
     <g id="line2d_6">
      <path d="M 240.004156 253.50825 
L 339.213656 425.344145 
" clip-path="url(#pd5fa45a007)" style="fill: none; stroke: #b0b0b0; stroke-opacity: 0.3; stroke-width: 0.8; stroke-linecap: square"/>
     </g>
     <g id="text_6">
      <!-- SRC -->
      <g style="fill: #757575" transform="translate(335.093344 434.628969) scale(0.1 -0.1)">
       <defs>
        <path id="DejaVuSans-Bold-53" d="M 3834 4519 
L 3834 3531 
Q 3450 3703 3084 3790 
Q 2719 3878 2394 3878 
Q 1963 3878 1756 3759 
Q 1550 3641 1550 3391 
Q 1550 3203 1689 3098 
Q 1828 2994 2194 2919 
L 2706 2816 
Q 3484 2659 3812 2340 
Q 4141 2022 4141 1434 
Q 4141 663 3683 286 
Q 3225 -91 2284 -91 
Q 1841 -91 1394 -6 
Q 947 78 500 244 
L 500 1259 
Q 947 1022 1364 901 
Q 1781 781 2169 781 
Q 2563 781 2772 912 
Q 2981 1044 2981 1288 
Q 2981 1506 2839 1625 
Q 2697 1744 2272 1838 
L 1806 1941 
Q 1106 2091 782 2419 
Q 459 2747 459 3303 
Q 459 4000 909 4375 
Q 1359 4750 2203 4750 
Q 2588 4750 2994 4692 
Q 3400 4634 3834 4519 
z
" transform="scale(0.015625)"/>
       </defs>
       <use xlink:href="#DejaVuSans-Bold-53"/>
       <use xlink:href="#DejaVuSans-Bold-52" transform="translate(72.021484 0)"/>
       <use xlink:href="#DejaVuSans-Bold-43" transform="translate(149.023438 0)"/>
      </g>
      <!-- (0.042) -->
      <g style="fill: #757575" transform="translate(325.8285 445.826781) scale(0.1 -0.1)">
       <use xlink:href="#DejaVuSans-Bold-28"/>
       <use xlink:href="#DejaVuSans-Bold-30" transform="translate(45.703125 0)"/>
       <use xlink:href="#DejaVuSans-Bold-2e" transform="translate(115.283203 0)"/>
       <use xlink:href="#DejaVuSans-Bold-30" transform="translate(153.271484 0)"/>
       <use xlink:href="#DejaVuSans-Bold-34" transform="translate(222.851562 0)"/>
       <use xlink:href="#DejaVuSans-Bold-32" transform="translate(292.431641 0)"/>
       <use xlink:href="#DejaVuSans-Bold-29" transform="translate(362.011719 0)"/>
      </g>
     </g>
    </g>
   </g>
   <g id="matplotlib.axis_2">
    <g id="ytick_1">
     <g id="line2d_7">
      <path d="M 287.246775 253.50825 
C 287.246775 247.304406 286.024753 241.160887 283.650645 235.429282 
C 281.276537 229.697678 277.796513 224.489454 273.409733 220.102674 
C 269.022952 215.715894 263.814728 212.235869 258.083124 209.861761 
C 252.351519 207.487653 246.208 206.265631 240.004156 206.265631 
C 233.800312 206.265631 227.656793 207.487653 221.925189 209.861761 
C 216.193584 212.235869 210.98536 215.715894 206.59858 220.102674 
C 202.2118 224.489454 198.731776 229.697678 196.357667 235.429282 
C 193.983559 241.160887 192.761537 247.304406 192.761537 253.50825 
C 192.761537 259.712094 193.983559 265.855613 196.357667 271.587218 
C 198.731776 277.318822 202.2118 282.527046 206.59858 286.913826 
C 210.98536 291.300606 216.193584 294.780631 221.925189 297.154739 
C 227.656793 299.528847 233.800312 300.750869 240.004156 300.750869 
C 246.208 300.750869 252.351519 299.528847 258.083124 297.154739 
C 263.814728 294.780631 269.022952 291.300606 273.409733 286.913826 
C 277.796513 282.527046 281.276537 277.318822 283.650645 271.587218 
C 286.024753 265.855613 287.246775 259.712094 287.246775 253.50825 
" clip-path="url(#pd5fa45a007)" style="fill: none; stroke: #b0b0b0; stroke-opacity: 0.3; stroke-width: 0.8; stroke-linecap: square"/>
     </g>
     <g id="text_7">
      <!-- 0.25 -->
      <g style="fill: #808080" transform="translate(283.650645 233.973501) scale(0.07 -0.07)">
       <defs>
        <path id="DejaVuSans-30" d="M 2034 4250 
Q 1547 4250 1301 3770 
Q 1056 3291 1056 2328 
Q 1056 1369 1301 889 
Q 1547 409 2034 409 
Q 2525 409 2770 889 
Q 3016 1369 3016 2328 
Q 3016 3291 2770 3770 
Q 2525 4250 2034 4250 
z
M 2034 4750 
Q 2819 4750 3233 4129 
Q 3647 3509 3647 2328 
Q 3647 1150 3233 529 
Q 2819 -91 2034 -91 
Q 1250 -91 836 529 
Q 422 1150 422 2328 
Q 422 3509 836 4129 
Q 1250 4750 2034 4750 
z
" transform="scale(0.015625)"/>
        <path id="DejaVuSans-2e" d="M 684 794 
L 1344 794 
L 1344 0 
L 684 0 
L 684 794 
z
" transform="scale(0.015625)"/>
        <path id="DejaVuSans-32" d="M 1228 531 
L 3431 531 
L 3431 0 
L 469 0 
L 469 531 
Q 828 903 1448 1529 
Q 2069 2156 2228 2338 
Q 2531 2678 2651 2914 
Q 2772 3150 2772 3378 
Q 2772 3750 2511 3984 
Q 2250 4219 1831 4219 
Q 1534 4219 1204 4116 
Q 875 4013 500 3803 
L 500 4441 
Q 881 4594 1212 4672 
Q 1544 4750 1819 4750 
Q 2544 4750 2975 4387 
Q 3406 4025 3406 3419 
Q 3406 3131 3298 2873 
Q 3191 2616 2906 2266 
Q 2828 2175 2409 1742 
Q 1991 1309 1228 531 
z
" transform="scale(0.015625)"/>
        <path id="DejaVuSans-35" d="M 691 4666 
L 3169 4666 
L 3169 4134 
L 1269 4134 
L 1269 2991 
Q 1406 3038 1543 3061 
Q 1681 3084 1819 3084 
Q 2600 3084 3056 2656 
Q 3513 2228 3513 1497 
Q 3513 744 3044 326 
Q 2575 -91 1722 -91 
Q 1428 -91 1123 -41 
Q 819 9 494 109 
L 494 744 
Q 775 591 1075 516 
Q 1375 441 1709 441 
Q 2250 441 2565 725 
Q 2881 1009 2881 1497 
Q 2881 1984 2565 2268 
Q 2250 2553 1709 2553 
Q 1456 2553 1204 2497 
Q 953 2441 691 2322 
L 691 4666 
z
" transform="scale(0.015625)"/>
       </defs>
       <use xlink:href="#DejaVuSans-30"/>
       <use xlink:href="#DejaVuSans-2e" transform="translate(63.623047 0)"/>
       <use xlink:href="#DejaVuSans-32" transform="translate(95.410156 0)"/>
       <use xlink:href="#DejaVuSans-35" transform="translate(159.033203 0)"/>
      </g>
     </g>
    </g>
    <g id="ytick_2">
     <g id="line2d_8">
      <path d="M 334.489394 253.50825 
C 334.489394 241.100562 332.04535 228.813524 327.297134 217.350315 
C 322.548917 205.887106 315.588869 195.470658 306.815309 186.697097 
C 298.041749 177.923537 287.6253 170.963489 276.162091 166.215272 
C 264.698883 161.467056 252.411844 159.023012 240.004156 159.023012 
C 227.596468 159.023012 215.30943 161.467056 203.846221 166.215272 
C 192.383012 170.963489 181.966564 177.923537 173.193004 186.697097 
C 164.419444 195.470658 157.459395 205.887106 152.711179 217.350315 
C 147.962962 228.813524 145.518918 241.100562 145.518918 253.50825 
C 145.518918 265.915938 147.962962 278.202976 152.711179 289.666185 
C 157.459395 301.129394 164.419444 311.545842 173.193004 320.319403 
C 181.966564 329.092963 192.383012 336.053011 203.846221 340.801228 
C 215.30943 345.549444 227.596468 347.993488 240.004156 347.993488 
C 252.411844 347.993488 264.698883 345.549444 276.162091 340.801228 
C 287.6253 336.053011 298.041749 329.092963 306.815309 320.319403 
C 315.588869 311.545842 322.548917 301.129394 327.297134 289.666185 
C 332.04535 278.202976 334.489394 265.915938 334.489394 253.50825 
" clip-path="url(#pd5fa45a007)" style="fill: none; stroke: #b0b0b0; stroke-opacity: 0.3; stroke-width: 0.8; stroke-linecap: square"/>
     </g>
     <g id="text_8">
      <!-- 0.50 -->
      <g style="fill: #808080" transform="translate(327.297134 215.894534) scale(0.07 -0.07)">
       <use xlink:href="#DejaVuSans-30"/>
       <use xlink:href="#DejaVuSans-2e" transform="translate(63.623047 0)"/>
       <use xlink:href="#DejaVuSans-35" transform="translate(95.410156 0)"/>
       <use xlink:href="#DejaVuSans-30" transform="translate(159.033203 0)"/>
      </g>
     </g>
    </g>
    <g id="ytick_3">
     <g id="line2d_9">
      <path d="M 381.732013 253.50825 
C 381.732013 234.896718 378.065947 216.46616 370.943623 199.271347 
C 363.821298 182.076534 353.381225 166.451861 340.220885 153.291521 
C 327.060545 140.131181 311.435872 129.691108 294.241059 122.568784 
C 277.046246 115.446459 258.615688 111.780393 240.004156 111.780393 
C 221.392625 111.780393 202.962067 115.446459 185.767253 122.568784 
C 168.57244 129.691108 152.947768 140.131181 139.787427 153.291521 
C 126.627087 166.451861 116.187015 182.076534 109.06469 199.271347 
C 101.942365 216.46616 98.276299 234.896718 98.276299 253.50825 
C 98.276299 272.119782 101.942365 290.55034 109.06469 307.745153 
C 116.187015 324.939966 126.627087 340.564639 139.787427 353.724979 
C 152.947768 366.885319 168.57244 377.325392 185.767253 384.447716 
C 202.962067 391.570041 221.392625 395.236107 240.004156 395.236107 
C 258.615688 395.236107 277.046246 391.570041 294.241059 384.447716 
C 311.435872 377.325392 327.060545 366.885319 340.220885 353.724979 
C 353.381225 340.564639 363.821298 324.939966 370.943623 307.745153 
C 378.065947 290.55034 381.732013 272.119782 381.732013 253.50825 
" clip-path="url(#pd5fa45a007)" style="fill: none; stroke: #b0b0b0; stroke-opacity: 0.3; stroke-width: 0.8; stroke-linecap: square"/>
     </g>
     <g id="text_9">
      <!-- 0.75 -->
      <g style="fill: #808080" transform="translate(370.943623 197.815566) scale(0.07 -0.07)">
       <defs>
        <path id="DejaVuSans-37" d="M 525 4666 
L 3525 4666 
L 3525 4397 
L 1831 0 
L 1172 0 
L 2766 4134 
L 525 4134 
L 525 4666 
z
" transform="scale(0.015625)"/>
       </defs>
       <use xlink:href="#DejaVuSans-30"/>
       <use xlink:href="#DejaVuSans-2e" transform="translate(63.623047 0)"/>
       <use xlink:href="#DejaVuSans-37" transform="translate(95.410156 0)"/>
       <use xlink:href="#DejaVuSans-35" transform="translate(159.033203 0)"/>
      </g>
     </g>
    </g>
    <g id="ytick_4">
     <g id="line2d_10">
      <path d="M 428.974632 253.50825 
C 428.974632 228.692874 424.086545 204.118797 414.590111 181.19238 
C 405.093678 158.265962 391.173582 137.433065 373.626461 119.885945 
C 356.079341 102.338825 335.246444 88.418728 312.320027 78.922295 
C 289.393609 69.425862 264.819532 64.537774 240.004156 64.537774 
C 215.188781 64.537774 190.614703 69.425862 167.688286 78.922295 
C 144.761868 88.418728 123.928971 102.338825 106.381851 119.885945 
C 88.834731 137.433065 74.914634 158.265962 65.418201 181.19238 
C 55.921768 204.118797 51.03368 228.692874 51.03368 253.50825 
C 51.03368 278.323626 55.921768 302.897703 65.418201 325.82412 
C 74.914634 348.750538 88.834731 369.583435 106.381851 387.130555 
C 123.928971 404.677675 144.761868 418.597772 167.688286 428.094205 
C 190.614703 437.590638 215.188781 442.478726 240.004156 442.478726 
C 264.819532 442.478726 289.393609 437.590638 312.320027 428.094205 
C 335.246444 418.597772 356.079341 404.677675 373.626461 387.130555 
C 391.173582 369.583435 405.093678 348.750538 414.590111 325.82412 
C 424.086545 302.897703 428.974632 278.323626 428.974632 253.50825 
" clip-path="url(#pd5fa45a007)" style="fill: none; stroke: #b0b0b0; stroke-opacity: 0.3; stroke-width: 0.8; stroke-linecap: square"/>
     </g>
     <g id="text_10">
      <!-- 1.00 -->
      <g style="fill: #808080" transform="translate(414.590111 179.736598) scale(0.07 -0.07)">
       <defs>
        <path id="DejaVuSans-31" d="M 794 531 
L 1825 531 
L 1825 4091 
L 703 3866 
L 703 4441 
L 1819 4666 
L 2450 4666 
L 2450 531 
L 3481 531 
L 3481 0 
L 794 0 
L 794 531 
z
" transform="scale(0.015625)"/>
       </defs>
       <use xlink:href="#DejaVuSans-31"/>
       <use xlink:href="#DejaVuSans-2e" transform="translate(63.623047 0)"/>
       <use xlink:href="#DejaVuSans-30" transform="translate(95.410156 0)"/>
       <use xlink:href="#DejaVuSans-30" transform="translate(159.033203 0)"/>
      </g>
     </g>
    </g>
   </g>
   <g id="line2d_11">
    <path d="M 427.205246 253.50825 
L 285.035042 175.512468 
L 214.873914 209.981394 
L 166.44439 253.50825 
L 229.226646 272.175445 
L 243.702705 259.914324 
L 427.205246 253.50825 
" clip-path="url(#pd5fa45a007)" style="fill: none; stroke: #e53935; stroke-width: 2.5; stroke-linecap: square"/>
    <defs>
     <path id="m8153acd0de" d="M 0 4 
C 1.060812 4 2.078319 3.578535 2.828427 2.828427 
C 3.578535 2.078319 4 1.060812 4 0 
C 4 -1.060812 3.578535 -2.078319 2.828427 -2.828427 
C 2.078319 -3.578535 1.060812 -4 0 -4 
C -1.060812 -4 -2.078319 -3.578535 -2.828427 -2.828427 
C -3.578535 -2.078319 -4 -1.060812 -4 0 
C -4 1.060812 -3.578535 2.078319 -2.828427 2.828427 
C -2.078319 3.578535 -1.060812 4 0 4 
z
" style="stroke: #ffffff; stroke-width: 1.5"/>
    </defs>
    <g clip-path="url(#pd5fa45a007)">
     <use xlink:href="#m8153acd0de" x="427.205246" y="253.50825" style="fill: #e53935; stroke: #ffffff; stroke-width: 1.5"/>
     <use xlink:href="#m8153acd0de" x="285.035042" y="175.512468" style="fill: #e53935; stroke: #ffffff; stroke-width: 1.5"/>
     <use xlink:href="#m8153acd0de" x="214.873914" y="209.981394" style="fill: #e53935; stroke: #ffffff; stroke-width: 1.5"/>
     <use xlink:href="#m8153acd0de" x="166.44439" y="253.50825" style="fill: #e53935; stroke: #ffffff; stroke-width: 1.5"/>
     <use xlink:href="#m8153acd0de" x="229.226646" y="272.175445" style="fill: #e53935; stroke: #ffffff; stroke-width: 1.5"/>
     <use xlink:href="#m8153acd0de" x="243.702705" y="259.914324" style="fill: #e53935; stroke: #ffffff; stroke-width: 1.5"/>
     <use xlink:href="#m8153acd0de" x="427.205246" y="253.50825" style="fill: #e53935; stroke: #ffffff; stroke-width: 1.5"/>
    </g>
   </g>
   <g id="line2d_12">
    <path d="M 328.47348 253.50825 
L 284.238818 176.891568 
L 195.769494 176.891568 
L 151.534832 253.50825 
L 195.769494 330.124932 
L 284.238818 330.124932 
L 328.47348 253.50825 
" clip-path="url(#pd5fa45a007)" style="fill: none; stroke-dasharray: 5.55,2.4; stroke-dashoffset: 0; stroke: #ff9800; stroke-opacity: 0.7; stroke-width: 1.5"/>
   </g>
   <g id="patch_4">
    <path d="M 438.423156 253.50825 
C 438.423156 227.452106 433.290664 201.649324 423.319409 177.576586 
C 413.348154 153.503848 398.732053 131.629306 380.307577 113.20483 
C 361.8831 94.780353 340.008559 80.164252 315.93582 70.192997 
C 291.863082 60.221742 266.060301 55.08925 240.004156 55.08925 
C 213.948012 55.08925 188.145231 60.221742 164.072492 70.192997 
C 139.999754 80.164252 118.125212 94.780353 99.700736 113.20483 
C 81.276259 131.629306 66.660158 153.503848 56.688903 177.576586 
C 46.717649 201.649324 41.585156 227.452106 41.585156 253.50825 
C 41.585156 279.564394 46.717649 305.367176 56.688903 329.439914 
C 66.660158 353.512652 81.276259 375.387194 99.700736 393.81167 
C 118.125212 412.236147 139.999754 426.852248 164.072492 436.823503 
C 188.145231 446.794758 213.948012 451.92725 240.004156 451.92725 
C 266.060301 451.92725 291.863082 446.794758 315.93582 436.823503 
C 340.008559 426.852248 361.8831 412.236147 380.307577 393.81167 
C 398.732053 375.387194 413.348154 353.512652 423.319409 329.439914 
C 433.290664 305.367176 438.423156 279.564394 438.423156 253.50825 
" style="fill: none; stroke: #000000; stroke-width: 0.8; stroke-linejoin: miter; stroke-linecap: square"/>
   </g>
   <g id="text_11">
    <!-- Figure 6: genmol_119 Kinase Selectivity Profile -->
    <g transform="translate(79.960719 16.318125) scale(0.12 -0.12)">
     <defs>
      <path id="DejaVuSans-Bold-46" d="M 588 4666 
L 3834 4666 
L 3834 3756 
L 1791 3756 
L 1791 2888 
L 3713 2888 
L 3713 1978 
L 1791 1978 
L 1791 0 
L 588 0 
L 588 4666 
z
" transform="scale(0.015625)"/>
      <path id="DejaVuSans-Bold-69" d="M 538 3500 
L 1656 3500 
L 1656 0 
L 538 0 
L 538 3500 
z
M 538 4863 
L 1656 4863 
L 1656 3950 
L 538 3950 
L 538 4863 
z
" transform="scale(0.015625)"/>
      <path id="DejaVuSans-Bold-67" d="M 2919 594 
Q 2688 288 2409 144 
Q 2131 0 1766 0 
Q 1125 0 706 504 
Q 288 1009 288 1791 
Q 288 2575 706 3076 
Q 1125 3578 1766 3578 
Q 2131 3578 2409 3434 
Q 2688 3291 2919 2981 
L 2919 3500 
L 4044 3500 
L 4044 353 
Q 4044 -491 3511 -936 
Q 2978 -1381 1966 -1381 
Q 1638 -1381 1331 -1331 
Q 1025 -1281 716 -1178 
L 716 -306 
Q 1009 -475 1290 -558 
Q 1572 -641 1856 -641 
Q 2406 -641 2662 -400 
Q 2919 -159 2919 353 
L 2919 594 
z
M 2181 2772 
Q 1834 2772 1640 2515 
Q 1447 2259 1447 1791 
Q 1447 1309 1634 1061 
Q 1822 813 2181 813 
Q 2531 813 2725 1069 
Q 2919 1325 2919 1791 
Q 2919 2259 2725 2515 
Q 2531 2772 2181 2772 
z
" transform="scale(0.015625)"/>
      <path id="DejaVuSans-Bold-75" d="M 500 1363 
L 500 3500 
L 1625 3500 
L 1625 3150 
Q 1625 2866 1622 2436 
Q 1619 2006 1619 1863 
Q 1619 1441 1641 1255 
Q 1663 1069 1716 984 
Q 1784 875 1895 815 
Q 2006 756 2150 756 
Q 2500 756 2700 1025 
Q 2900 1294 2900 1772 
L 2900 3500 
L 4019 3500 
L 4019 0 
L 2900 0 
L 2900 506 
Q 2647 200 2364 54 
Q 2081 -91 1741 -91 
Q 1134 -91 817 281 
Q 500 653 500 1363 
z
" transform="scale(0.015625)"/>
      <path id="DejaVuSans-Bold-72" d="M 3138 2547 
Q 2991 2616 2845 2648 
Q 2700 2681 2553 2681 
Q 2122 2681 1889 2404 
Q 1656 2128 1656 1613 
L 1656 0 
L 538 0 
L 538 3500 
L 1656 3500 
L 1656 2925 
Q 1872 3269 2151 3426 
Q 2431 3584 2822 3584 
Q 2878 3584 2943 3579 
Q 3009 3575 3134 3559 
L 3138 2547 
z
" transform="scale(0.015625)"/>
      <path id="DejaVuSans-Bold-65" d="M 4031 1759 
L 4031 1441 
L 1416 1441 
Q 1456 1047 1700 850 
Q 1944 653 2381 653 
Q 2734 653 3104 758 
Q 3475 863 3866 1075 
L 3866 213 
Q 3469 63 3072 -14 
Q 2675 -91 2278 -91 
Q 1328 -91 801 392 
Q 275 875 275 1747 
Q 275 2603 792 3093 
Q 1309 3584 2216 3584 
Q 3041 3584 3536 3087 
Q 4031 2591 4031 1759 
z
M 2881 2131 
Q 2881 2450 2695 2645 
Q 2509 2841 2209 2841 
Q 1884 2841 1681 2658 
Q 1478 2475 1428 2131 
L 2881 2131 
z
" transform="scale(0.015625)"/>
      <path id="DejaVuSans-Bold-20" transform="scale(0.015625)"/>
      <path id="DejaVuSans-Bold-3a" d="M 716 3500 
L 1844 3500 
L 1844 2291 
L 716 2291 
L 716 3500 
z
M 716 1209 
L 1844 1209 
L 1844 0 
L 716 0 
L 716 1209 
z
" transform="scale(0.015625)"/>
      <path id="DejaVuSans-Bold-6e" d="M 4056 2131 
L 4056 0 
L 2931 0 
L 2931 347 
L 2931 1631 
Q 2931 2084 2911 2256 
Q 2891 2428 2841 2509 
Q 2775 2619 2662 2680 
Q 2550 2741 2406 2741 
Q 2056 2741 1856 2470 
Q 1656 2200 1656 1722 
L 1656 0 
L 538 0 
L 538 3500 
L 1656 3500 
L 1656 2988 
Q 1909 3294 2193 3439 
Q 2478 3584 2822 3584 
Q 3428 3584 3742 3212 
Q 4056 2841 4056 2131 
z
" transform="scale(0.015625)"/>
      <path id="DejaVuSans-Bold-6d" d="M 3781 2919 
Q 3994 3244 4286 3414 
Q 4578 3584 4928 3584 
Q 5531 3584 5847 3212 
Q 6163 2841 6163 2131 
L 6163 0 
L 5038 0 
L 5038 1825 
Q 5041 1866 5042 1909 
Q 5044 1953 5044 2034 
Q 5044 2406 4934 2573 
Q 4825 2741 4581 2741 
Q 4263 2741 4089 2478 
Q 3916 2216 3909 1719 
L 3909 0 
L 2784 0 
L 2784 1825 
Q 2784 2406 2684 2573 
Q 2584 2741 2328 2741 
Q 2006 2741 1831 2477 
Q 1656 2213 1656 1722 
L 1656 0 
L 531 0 
L 531 3500 
L 1656 3500 
L 1656 2988 
Q 1863 3284 2130 3434 
Q 2397 3584 2719 3584 
Q 3081 3584 3359 3409 
Q 3638 3234 3781 2919 
z
" transform="scale(0.015625)"/>
      <path id="DejaVuSans-Bold-6f" d="M 2203 2784 
Q 1831 2784 1636 2517 
Q 1441 2250 1441 1747 
Q 1441 1244 1636 976 
Q 1831 709 2203 709 
Q 2569 709 2762 976 
Q 2956 1244 2956 1747 
Q 2956 2250 2762 2517 
Q 2569 2784 2203 2784 
z
M 2203 3584 
Q 3106 3584 3614 3096 
Q 4122 2609 4122 1747 
Q 4122 884 3614 396 
Q 3106 -91 2203 -91 
Q 1297 -91 786 396 
Q 275 884 275 1747 
Q 275 2609 786 3096 
Q 1297 3584 2203 3584 
z
" transform="scale(0.015625)"/>
      <path id="DejaVuSans-Bold-6c" d="M 538 4863 
L 1656 4863 
L 1656 0 
L 538 0 
L 538 4863 
z
" transform="scale(0.015625)"/>
      <path id="DejaVuSans-Bold-5f" d="M 3200 -916 
L 3200 -1509 
L 0 -1509 
L 0 -916 
L 3200 -916 
z
" transform="scale(0.015625)"/>
      <path id="DejaVuSans-Bold-61" d="M 2106 1575 
Q 1756 1575 1579 1456 
Q 1403 1338 1403 1106 
Q 1403 894 1545 773 
Q 1688 653 1941 653 
Q 2256 653 2472 879 
Q 2688 1106 2688 1447 
L 2688 1575 
L 2106 1575 
z
M 3816 1997 
L 3816 0 
L 2688 0 
L 2688 519 
Q 2463 200 2181 54 
Q 1900 -91 1497 -91 
Q 953 -91 614 226 
Q 275 544 275 1050 
Q 275 1666 698 1953 
Q 1122 2241 2028 2241 
L 2688 2241 
L 2688 2328 
Q 2688 2594 2478 2717 
Q 2269 2841 1825 2841 
Q 1466 2841 1156 2769 
Q 847 2697 581 2553 
L 581 3406 
Q 941 3494 1303 3539 
Q 1666 3584 2028 3584 
Q 2975 3584 3395 3211 
Q 3816 2838 3816 1997 
z
" transform="scale(0.015625)"/>
      <path id="DejaVuSans-Bold-73" d="M 3272 3391 
L 3272 2541 
Q 2913 2691 2578 2766 
Q 2244 2841 1947 2841 
Q 1628 2841 1473 2761 
Q 1319 2681 1319 2516 
Q 1319 2381 1436 2309 
Q 1553 2238 1856 2203 
L 2053 2175 
Q 2913 2066 3209 1816 
Q 3506 1566 3506 1031 
Q 3506 472 3093 190 
Q 2681 -91 1863 -91 
Q 1516 -91 1145 -36 
Q 775 19 384 128 
L 384 978 
Q 719 816 1070 734 
Q 1422 653 1784 653 
Q 2113 653 2278 743 
Q 2444 834 2444 1013 
Q 2444 1163 2330 1236 
Q 2216 1309 1875 1350 
L 1678 1375 
Q 931 1469 631 1722 
Q 331 1975 331 2491 
Q 331 3047 712 3315 
Q 1094 3584 1881 3584 
Q 2191 3584 2531 3537 
Q 2872 3491 3272 3391 
z
" transform="scale(0.015625)"/>
      <path id="DejaVuSans-Bold-63" d="M 3366 3391 
L 3366 2478 
Q 3138 2634 2908 2709 
Q 2678 2784 2431 2784 
Q 1963 2784 1702 2511 
Q 1441 2238 1441 1747 
Q 1441 1256 1702 982 
Q 1963 709 2431 709 
Q 2694 709 2930 787 
Q 3166 866 3366 1019 
L 3366 103 
Q 3103 6 2833 -42 
Q 2563 -91 2291 -91 
Q 1344 -91 809 395 
Q 275 881 275 1747 
Q 275 2613 809 3098 
Q 1344 3584 2291 3584 
Q 2566 3584 2833 3536 
Q 3100 3488 3366 3391 
z
" transform="scale(0.015625)"/>
      <path id="DejaVuSans-Bold-74" d="M 1759 4494 
L 1759 3500 
L 2913 3500 
L 2913 2700 
L 1759 2700 
L 1759 1216 
Q 1759 972 1856 886 
Q 1953 800 2241 800 
L 2816 800 
L 2816 0 
L 1856 0 
Q 1194 0 917 276 
Q 641 553 641 1216 
L 641 2700 
L 84 2700 
L 84 3500 
L 641 3500 
L 641 4494 
L 1759 4494 
z
" transform="scale(0.015625)"/>
      <path id="DejaVuSans-Bold-76" d="M 97 3500 
L 1216 3500 
L 2088 1081 
L 2956 3500 
L 4078 3500 
L 2700 0 
L 1472 0 
L 97 3500 
z
" transform="scale(0.015625)"/>
      <path id="DejaVuSans-Bold-79" d="M 78 3500 
L 1197 3500 
L 2138 1125 
L 2938 3500 
L 4056 3500 
L 2584 -331 
Q 2363 -916 2067 -1148 
Q 1772 -1381 1288 -1381 
L 641 -1381 
L 641 -647 
L 991 -647 
Q 1275 -647 1404 -556 
Q 1534 -466 1606 -231 
L 1638 -134 
L 78 3500 
z
" transform="scale(0.015625)"/>
      <path id="DejaVuSans-Bold-66" d="M 2841 4863 
L 2841 4128 
L 2222 4128 
Q 1984 4128 1890 4042 
Q 1797 3956 1797 3744 
L 1797 3500 
L 2753 3500 
L 2753 2700 
L 1797 2700 
L 1797 0 
L 678 0 
L 678 2700 
L 122 2700 
L 122 3500 
L 678 3500 
L 678 3744 
Q 678 4316 997 4589 
Q 1316 4863 1984 4863 
L 2841 4863 
z
" transform="scale(0.015625)"/>
     </defs>
     <use xlink:href="#DejaVuSans-Bold-46"/>
     <use xlink:href="#DejaVuSans-Bold-69" transform="translate(68.310547 0)"/>
     <use xlink:href="#DejaVuSans-Bold-67" transform="translate(102.587891 0)"/>
     <use xlink:href="#DejaVuSans-Bold-75" transform="translate(174.169922 0)"/>
     <use xlink:href="#DejaVuSans-Bold-72" transform="translate(245.361328 0)"/>
     <use xlink:href="#DejaVuSans-Bold-65" transform="translate(294.677734 0)"/>
     <use xlink:href="#DejaVuSans-Bold-20" transform="translate(362.5 0)"/>
     <use xlink:href="#DejaVuSans-Bold-36" transform="translate(397.314453 0)"/>
     <use xlink:href="#DejaVuSans-Bold-3a" transform="translate(466.894531 0)"/>
     <use xlink:href="#DejaVuSans-Bold-20" transform="translate(506.884766 0)"/>
     <use xlink:href="#DejaVuSans-Bold-67" transform="translate(541.699219 0)"/>
     <use xlink:href="#DejaVuSans-Bold-65" transform="translate(613.28125 0)"/>
     <use xlink:href="#DejaVuSans-Bold-6e" transform="translate(681.103516 0)"/>
     <use xlink:href="#DejaVuSans-Bold-6d" transform="translate(752.294922 0)"/>
     <use xlink:href="#DejaVuSans-Bold-6f" transform="translate(856.494141 0)"/>
     <use xlink:href="#DejaVuSans-Bold-6c" transform="translate(925.195312 0)"/>
     <use xlink:href="#DejaVuSans-Bold-5f" transform="translate(959.472656 0)"/>
     <use xlink:href="#DejaVuSans-Bold-31" transform="translate(1009.472656 0)"/>
     <use xlink:href="#DejaVuSans-Bold-31" transform="translate(1079.052734 0)"/>
     <use xlink:href="#DejaVuSans-Bold-39" transform="translate(1148.632812 0)"/>
     <use xlink:href="#DejaVuSans-Bold-20" transform="translate(1218.212891 0)"/>
     <use xlink:href="#DejaVuSans-Bold-4b" transform="translate(1253.027344 0)"/>
     <use xlink:href="#DejaVuSans-Bold-69" transform="translate(1330.517578 0)"/>
     <use xlink:href="#DejaVuSans-Bold-6e" transform="translate(1364.794922 0)"/>
     <use xlink:href="#DejaVuSans-Bold-61" transform="translate(1435.986328 0)"/>
     <use xlink:href="#DejaVuSans-Bold-73" transform="translate(1503.466797 0)"/>
     <use xlink:href="#DejaVuSans-Bold-65" transform="translate(1562.988281 0)"/>
     <use xlink:href="#DejaVuSans-Bold-20" transform="translate(1630.810547 0)"/>
     <use xlink:href="#DejaVuSans-Bold-53" transform="translate(1665.625 0)"/>
     <use xlink:href="#DejaVuSans-Bold-65" transform="translate(1737.646484 0)"/>
     <use xlink:href="#DejaVuSans-Bold-6c" transform="translate(1805.46875 0)"/>
     <use xlink:href="#DejaVuSans-Bold-65" transform="translate(1839.746094 0)"/>
     <use xlink:href="#DejaVuSans-Bold-63" transform="translate(1907.568359 0)"/>
     <use xlink:href="#DejaVuSans-Bold-74" transform="translate(1966.845703 0)"/>
     <use xlink:href="#DejaVuSans-Bold-69" transform="translate(2014.648438 0)"/>
     <use xlink:href="#DejaVuSans-Bold-76" transform="translate(2048.925781 0)"/>
     <use xlink:href="#DejaVuSans-Bold-69" transform="translate(2114.111328 0)"/>
     <use xlink:href="#DejaVuSans-Bold-74" transform="translate(2148.388672 0)"/>
     <use xlink:href="#DejaVuSans-Bold-79" transform="translate(2196.191406 0)"/>
     <use xlink:href="#DejaVuSans-Bold-20" transform="translate(2261.376953 0)"/>
     <use xlink:href="#DejaVuSans-Bold-50" transform="translate(2296.191406 0)"/>
     <use xlink:href="#DejaVuSans-Bold-72" transform="translate(2369.482422 0)"/>
     <use xlink:href="#DejaVuSans-Bold-6f" transform="translate(2418.798828 0)"/>
     <use xlink:href="#DejaVuSans-Bold-66" transform="translate(2487.5 0)"/>
     <use xlink:href="#DejaVuSans-Bold-69" transform="translate(2531.005859 0)"/>
     <use xlink:href="#DejaVuSans-Bold-6c" transform="translate(2565.283203 0)"/>
     <use xlink:href="#DejaVuSans-Bold-65" transform="translate(2599.560547 0)"/>
    </g>
    <!-- (DiffDock v2.2, 20 poses per target) -->
    <g transform="translate(117.940719 30.08925) scale(0.12 -0.12)">
     <defs>
      <path id="DejaVuSans-Bold-44" d="M 1791 3756 
L 1791 909 
L 2222 909 
Q 2959 909 3348 1275 
Q 3738 1641 3738 2338 
Q 3738 3031 3350 3393 
Q 2963 3756 2222 3756 
L 1791 3756 
z
M 588 4666 
L 1856 4666 
Q 2919 4666 3439 4514 
Q 3959 4363 4331 4000 
Q 4659 3684 4818 3271 
Q 4978 2859 4978 2338 
Q 4978 1809 4818 1395 
Q 4659 981 4331 666 
Q 3956 303 3431 151 
Q 2906 0 1856 0 
L 588 0 
L 588 4666 
z
" transform="scale(0.015625)"/>
      <path id="DejaVuSans-Bold-6b" d="M 538 4863 
L 1656 4863 
L 1656 2216 
L 2944 3500 
L 4244 3500 
L 2534 1894 
L 4378 0 
L 3022 0 
L 1656 1459 
L 1656 0 
L 538 0 
L 538 4863 
z
" transform="scale(0.015625)"/>
      <path id="DejaVuSans-Bold-2c" d="M 653 1209 
L 1778 1209 
L 1778 256 
L 1006 -909 
L 341 -909 
L 653 256 
L 653 1209 
z
" transform="scale(0.015625)"/>
      <path id="DejaVuSans-Bold-70" d="M 1656 506 
L 1656 -1331 
L 538 -1331 
L 538 3500 
L 1656 3500 
L 1656 2988 
Q 1888 3294 2169 3439 
Q 2450 3584 2816 3584 
Q 3463 3584 3878 3070 
Q 4294 2556 4294 1747 
Q 4294 938 3878 423 
Q 3463 -91 2816 -91 
Q 2450 -91 2169 54 
Q 1888 200 1656 506 
z
M 2400 2772 
Q 2041 2772 1848 2508 
Q 1656 2244 1656 1747 
Q 1656 1250 1848 986 
Q 2041 722 2400 722 
Q 2759 722 2948 984 
Q 3138 1247 3138 1747 
Q 3138 2247 2948 2509 
Q 2759 2772 2400 2772 
z
" transform="scale(0.015625)"/>
     </defs>
     <use xlink:href="#DejaVuSans-Bold-28"/>
     <use xlink:href="#DejaVuSans-Bold-44" transform="translate(45.703125 0)"/>
     <use xlink:href="#DejaVuSans-Bold-69" transform="translate(128.710938 0)"/>
     <use xlink:href="#DejaVuSans-Bold-66" transform="translate(162.988281 0)"/>
     <use xlink:href="#DejaVuSans-Bold-66" transform="translate(206.494141 0)"/>
     <use xlink:href="#DejaVuSans-Bold-44" transform="translate(250 0)"/>
     <use xlink:href="#DejaVuSans-Bold-6f" transform="translate(333.007812 0)"/>
     <use xlink:href="#DejaVuSans-Bold-63" transform="translate(401.708984 0)"/>
     <use xlink:href="#DejaVuSans-Bold-6b" transform="translate(460.986328 0)"/>
     <use xlink:href="#DejaVuSans-Bold-20" transform="translate(527.490234 0)"/>
     <use xlink:href="#DejaVuSans-Bold-76" transform="translate(562.304688 0)"/>
     <use xlink:href="#DejaVuSans-Bold-32" transform="translate(627.490234 0)"/>
     <use xlink:href="#DejaVuSans-Bold-2e" transform="translate(697.070312 0)"/>
     <use xlink:href="#DejaVuSans-Bold-32" transform="translate(735.058594 0)"/>
     <use xlink:href="#DejaVuSans-Bold-2c" transform="translate(804.638672 0)"/>
     <use xlink:href="#DejaVuSans-Bold-20" transform="translate(842.626953 0)"/>
     <use xlink:href="#DejaVuSans-Bold-32" transform="translate(877.441406 0)"/>
     <use xlink:href="#DejaVuSans-Bold-30" transform="translate(947.021484 0)"/>
     <use xlink:href="#DejaVuSans-Bold-20" transform="translate(1016.601562 0)"/>
     <use xlink:href="#DejaVuSans-Bold-70" transform="translate(1051.416016 0)"/>
     <use xlink:href="#DejaVuSans-Bold-6f" transform="translate(1122.998047 0)"/>
     <use xlink:href="#DejaVuSans-Bold-73" transform="translate(1191.699219 0)"/>
     <use xlink:href="#DejaVuSans-Bold-65" transform="translate(1251.220703 0)"/>
     <use xlink:href="#DejaVuSans-Bold-73" transform="translate(1319.042969 0)"/>
     <use xlink:href="#DejaVuSans-Bold-20" transform="translate(1378.564453 0)"/>
     <use xlink:href="#DejaVuSans-Bold-70" transform="translate(1413.378906 0)"/>
     <use xlink:href="#DejaVuSans-Bold-65" transform="translate(1484.960938 0)"/>
     <use xlink:href="#DejaVuSans-Bold-72" transform="translate(1552.783203 0)"/>
     <use xlink:href="#DejaVuSans-Bold-20" transform="translate(1602.099609 0)"/>
     <use xlink:href="#DejaVuSans-Bold-74" transform="translate(1636.914062 0)"/>
     <use xlink:href="#DejaVuSans-Bold-61" transform="translate(1684.716797 0)"/>
     <use xlink:href="#DejaVuSans-Bold-72" transform="translate(1752.197266 0)"/>
     <use xlink:href="#DejaVuSans-Bold-67" transform="translate(1801.513672 0)"/>
     <use xlink:href="#DejaVuSans-Bold-65" transform="translate(1873.095703 0)"/>
     <use xlink:href="#DejaVuSans-Bold-74" transform="translate(1940.917969 0)"/>
     <use xlink:href="#DejaVuSans-Bold-29" transform="translate(1988.720703 0)"/>
    </g>
   </g>
   <g id="legend_1">
    <g id="patch_5">
     <path d="M 345.529637 467.26915 
L 491.648856 467.26915 
Q 493.448856 467.26915 493.448856 465.46915 
L 493.448856 439.948525 
Q 493.448856 438.148525 491.648856 438.148525 
L 345.529637 438.148525 
Q 343.729637 438.148525 343.729637 439.948525 
L 343.729637 465.46915 
Q 343.729637 467.26915 345.529637 467.26915 
z
" style="fill: #ffffff; opacity: 0.8; stroke: #cccccc; stroke-linejoin: miter"/>
    </g>
    <g id="patch_6">
     <path d="M 347.329637 448.587119 
L 365.329637 448.587119 
L 365.329637 442.287119 
L 347.329637 442.287119 
z
" style="fill: #d32f2f; stroke: #d32f2f; stroke-linejoin: miter"/>
    </g>
    <g id="text_12">
     <!-- On-target (LIMK2, ROCK2) -->
     <g transform="translate(372.529637 448.587119) scale(0.09 -0.09)">
      <defs>
       <path id="DejaVuSans-4f" d="M 2522 4238 
Q 1834 4238 1429 3725 
Q 1025 3213 1025 2328 
Q 1025 1447 1429 934 
Q 1834 422 2522 422 
Q 3209 422 3611 934 
Q 4013 1447 4013 2328 
Q 4013 3213 3611 3725 
Q 3209 4238 2522 4238 
z
M 2522 4750 
Q 3503 4750 4090 4092 
Q 4678 3434 4678 2328 
Q 4678 1225 4090 567 
Q 3503 -91 2522 -91 
Q 1538 -91 948 565 
Q 359 1222 359 2328 
Q 359 3434 948 4092 
Q 1538 4750 2522 4750 
z
" transform="scale(0.015625)"/>
       <path id="DejaVuSans-6e" d="M 3513 2113 
L 3513 0 
L 2938 0 
L 2938 2094 
Q 2938 2591 2744 2837 
Q 2550 3084 2163 3084 
Q 1697 3084 1428 2787 
Q 1159 2491 1159 1978 
L 1159 0 
L 581 0 
L 581 3500 
L 1159 3500 
L 1159 2956 
Q 1366 3272 1645 3428 
Q 1925 3584 2291 3584 
Q 2894 3584 3203 3211 
Q 3513 2838 3513 2113 
z
" transform="scale(0.015625)"/>
       <path id="DejaVuSans-2d" d="M 313 2009 
L 1997 2009 
L 1997 1497 
L 313 1497 
L 313 2009 
z
" transform="scale(0.015625)"/>
       <path id="DejaVuSans-74" d="M 1172 4494 
L 1172 3500 
L 2356 3500 
L 2356 3053 
L 1172 3053 
L 1172 1153 
Q 1172 725 1289 603 
Q 1406 481 1766 481 
L 2356 481 
L 2356 0 
L 1766 0 
Q 1100 0 847 248 
Q 594 497 594 1153 
L 594 3053 
L 172 3053 
L 172 3500 
L 594 3500 
L 594 4494 
L 1172 4494 
z
" transform="scale(0.015625)"/>
       <path id="DejaVuSans-61" d="M 2194 1759 
Q 1497 1759 1228 1600 
Q 959 1441 959 1056 
Q 959 750 1161 570 
Q 1363 391 1709 391 
Q 2188 391 2477 730 
Q 2766 1069 2766 1631 
L 2766 1759 
L 2194 1759 
z
M 3341 1997 
L 3341 0 
L 2766 0 
L 2766 531 
Q 2569 213 2275 61 
Q 1981 -91 1556 -91 
Q 1019 -91 701 211 
Q 384 513 384 1019 
Q 384 1609 779 1909 
Q 1175 2209 1959 2209 
L 2766 2209 
L 2766 2266 
Q 2766 2663 2505 2880 
Q 2244 3097 1772 3097 
Q 1472 3097 1187 3025 
Q 903 2953 641 2809 
L 641 3341 
Q 956 3463 1253 3523 
Q 1550 3584 1831 3584 
Q 2591 3584 2966 3190 
Q 3341 2797 3341 1997 
z
" transform="scale(0.015625)"/>
       <path id="DejaVuSans-72" d="M 2631 2963 
Q 2534 3019 2420 3045 
Q 2306 3072 2169 3072 
Q 1681 3072 1420 2755 
Q 1159 2438 1159 1844 
L 1159 0 
L 581 0 
L 581 3500 
L 1159 3500 
L 1159 2956 
Q 1341 3275 1631 3429 
Q 1922 3584 2338 3584 
Q 2397 3584 2469 3576 
Q 2541 3569 2628 3553 
L 2631 2963 
z
" transform="scale(0.015625)"/>
       <path id="DejaVuSans-67" d="M 2906 1791 
Q 2906 2416 2648 2759 
Q 2391 3103 1925 3103 
Q 1463 3103 1205 2759 
Q 947 2416 947 1791 
Q 947 1169 1205 825 
Q 1463 481 1925 481 
Q 2391 481 2648 825 
Q 2906 1169 2906 1791 
z
M 3481 434 
Q 3481 -459 3084 -895 
Q 2688 -1331 1869 -1331 
Q 1566 -1331 1297 -1286 
Q 1028 -1241 775 -1147 
L 775 -588 
Q 1028 -725 1275 -790 
Q 1522 -856 1778 -856 
Q 2344 -856 2625 -561 
Q 2906 -266 2906 331 
L 2906 616 
Q 2728 306 2450 153 
Q 2172 0 1784 0 
Q 1141 0 747 490 
Q 353 981 353 1791 
Q 353 2603 747 3093 
Q 1141 3584 1784 3584 
Q 2172 3584 2450 3431 
Q 2728 3278 2906 2969 
L 2906 3500 
L 3481 3500 
L 3481 434 
z
" transform="scale(0.015625)"/>
       <path id="DejaVuSans-65" d="M 3597 1894 
L 3597 1613 
L 953 1613 
Q 991 1019 1311 708 
Q 1631 397 2203 397 
Q 2534 397 2845 478 
Q 3156 559 3463 722 
L 3463 178 
Q 3153 47 2828 -22 
Q 2503 -91 2169 -91 
Q 1331 -91 842 396 
Q 353 884 353 1716 
Q 353 2575 817 3079 
Q 1281 3584 2069 3584 
Q 2775 3584 3186 3129 
Q 3597 2675 3597 1894 
z
M 3022 2063 
Q 3016 2534 2758 2815 
Q 2500 3097 2075 3097 
Q 1594 3097 1305 2825 
Q 1016 2553 972 2059 
L 3022 2063 
z
" transform="scale(0.015625)"/>
       <path id="DejaVuSans-20" transform="scale(0.015625)"/>
       <path id="DejaVuSans-28" d="M 1984 4856 
Q 1566 4138 1362 3434 
Q 1159 2731 1159 2009 
Q 1159 1288 1364 580 
Q 1569 -128 1984 -844 
L 1484 -844 
Q 1016 -109 783 600 
Q 550 1309 550 2009 
Q 550 2706 781 3412 
Q 1013 4119 1484 4856 
L 1984 4856 
z
" transform="scale(0.015625)"/>
       <path id="DejaVuSans-4c" d="M 628 4666 
L 1259 4666 
L 1259 531 
L 3531 531 
L 3531 0 
L 628 0 
L 628 4666 
z
" transform="scale(0.015625)"/>
       <path id="DejaVuSans-49" d="M 628 4666 
L 1259 4666 
L 1259 0 
L 628 0 
L 628 4666 
z
" transform="scale(0.015625)"/>
       <path id="DejaVuSans-4d" d="M 628 4666 
L 1569 4666 
L 2759 1491 
L 3956 4666 
L 4897 4666 
L 4897 0 
L 4281 0 
L 4281 4097 
L 3078 897 
L 2444 897 
L 1241 4097 
L 1241 0 
L 628 0 
L 628 4666 
z
" transform="scale(0.015625)"/>
       <path id="DejaVuSans-4b" d="M 628 4666 
L 1259 4666 
L 1259 2694 
L 3353 4666 
L 4166 4666 
L 1850 2491 
L 4331 0 
L 3500 0 
L 1259 2247 
L 1259 0 
L 628 0 
L 628 4666 
z
" transform="scale(0.015625)"/>
       <path id="DejaVuSans-2c" d="M 750 794 
L 1409 794 
L 1409 256 
L 897 -744 
L 494 -744 
L 750 256 
L 750 794 
z
" transform="scale(0.015625)"/>
       <path id="DejaVuSans-52" d="M 2841 2188 
Q 3044 2119 3236 1894 
Q 3428 1669 3622 1275 
L 4263 0 
L 3584 0 
L 2988 1197 
Q 2756 1666 2539 1819 
Q 2322 1972 1947 1972 
L 1259 1972 
L 1259 0 
L 628 0 
L 628 4666 
L 2053 4666 
Q 2853 4666 3247 4331 
Q 3641 3997 3641 3322 
Q 3641 2881 3436 2590 
Q 3231 2300 2841 2188 
z
M 1259 4147 
L 1259 2491 
L 2053 2491 
Q 2509 2491 2742 2702 
Q 2975 2913 2975 3322 
Q 2975 3731 2742 3939 
Q 2509 4147 2053 4147 
L 1259 4147 
z
" transform="scale(0.015625)"/>
       <path id="DejaVuSans-43" d="M 4122 4306 
L 4122 3641 
Q 3803 3938 3442 4084 
Q 3081 4231 2675 4231 
Q 1875 4231 1450 3742 
Q 1025 3253 1025 2328 
Q 1025 1406 1450 917 
Q 1875 428 2675 428 
Q 3081 428 3442 575 
Q 3803 722 4122 1019 
L 4122 359 
Q 3791 134 3420 21 
Q 3050 -91 2638 -91 
Q 1578 -91 968 557 
Q 359 1206 359 2328 
Q 359 3453 968 4101 
Q 1578 4750 2638 4750 
Q 3056 4750 3426 4639 
Q 3797 4528 4122 4306 
z
" transform="scale(0.015625)"/>
       <path id="DejaVuSans-29" d="M 513 4856 
L 1013 4856 
Q 1481 4119 1714 3412 
Q 1947 2706 1947 2009 
Q 1947 1309 1714 600 
Q 1481 -109 1013 -844 
L 513 -844 
Q 928 -128 1133 580 
Q 1338 1288 1338 2009 
Q 1338 2731 1133 3434 
Q 928 4138 513 4856 
z
" transform="scale(0.015625)"/>
      </defs>
      <use xlink:href="#DejaVuSans-4f"/>
      <use xlink:href="#DejaVuSans-6e" transform="translate(78.710938 0)"/>
      <use xlink:href="#DejaVuSans-2d" transform="translate(142.089844 0)"/>
      <use xlink:href="#DejaVuSans-74" transform="translate(178.173828 0)"/>
      <use xlink:href="#DejaVuSans-61" transform="translate(217.382812 0)"/>
      <use xlink:href="#DejaVuSans-72" transform="translate(278.662109 0)"/>
      <use xlink:href="#DejaVuSans-67" transform="translate(318.025391 0)"/>
      <use xlink:href="#DejaVuSans-65" transform="translate(381.501953 0)"/>
      <use xlink:href="#DejaVuSans-74" transform="translate(443.025391 0)"/>
      <use xlink:href="#DejaVuSans-20" transform="translate(482.234375 0)"/>
      <use xlink:href="#DejaVuSans-28" transform="translate(514.021484 0)"/>
      <use xlink:href="#DejaVuSans-4c" transform="translate(553.035156 0)"/>
      <use xlink:href="#DejaVuSans-49" transform="translate(608.748047 0)"/>
      <use xlink:href="#DejaVuSans-4d" transform="translate(638.240234 0)"/>
      <use xlink:href="#DejaVuSans-4b" transform="translate(724.519531 0)"/>
      <use xlink:href="#DejaVuSans-32" transform="translate(790.095703 0)"/>
      <use xlink:href="#DejaVuSans-2c" transform="translate(853.71875 0)"/>
      <use xlink:href="#DejaVuSans-20" transform="translate(885.505859 0)"/>
      <use xlink:href="#DejaVuSans-52" transform="translate(917.292969 0)"/>
      <use xlink:href="#DejaVuSans-4f" transform="translate(986.775391 0)"/>
      <use xlink:href="#DejaVuSans-43" transform="translate(1065.486328 0)"/>
      <use xlink:href="#DejaVuSans-4b" transform="translate(1135.310547 0)"/>
      <use xlink:href="#DejaVuSans-32" transform="translate(1200.886719 0)"/>
      <use xlink:href="#DejaVuSans-29" transform="translate(1264.509766 0)"/>
     </g>
    </g>
    <g id="patch_7">
     <path d="M 347.329637 461.797431 
L 365.329637 461.797431 
L 365.329637 455.497431 
L 347.329637 455.497431 
z
" style="fill: #757575; stroke: #757575; stroke-linejoin: miter"/>
    </g>
    <g id="text_13">
     <!-- Off-target kinases -->
     <g transform="translate(372.529637 461.797431) scale(0.09 -0.09)">
      <defs>
       <path id="DejaVuSans-66" d="M 2375 4863 
L 2375 4384 
L 1825 4384 
Q 1516 4384 1395 4259 
Q 1275 4134 1275 3809 
L 1275 3500 
L 2222 3500 
L 2222 3053 
L 1275 3053 
L 1275 0 
L 697 0 
L 697 3053 
L 147 3053 
L 147 3500 
L 697 3500 
L 697 3744 
Q 697 4328 969 4595 
Q 1241 4863 1831 4863 
L 2375 4863 
z
" transform="scale(0.015625)"/>
       <path id="DejaVuSans-6b" d="M 581 4863 
L 1159 4863 
L 1159 1991 
L 2875 3500 
L 3609 3500 
L 1753 1863 
L 3688 0 
L 2938 0 
L 1159 1709 
L 1159 0 
L 581 0 
L 581 4863 
z
" transform="scale(0.015625)"/>
       <path id="DejaVuSans-69" d="M 603 3500 
L 1178 3500 
L 1178 0 
L 603 0 
L 603 3500 
z
M 603 4863 
L 1178 4863 
L 1178 4134 
L 603 4134 
L 603 4863 
z
" transform="scale(0.015625)"/>
       <path id="DejaVuSans-73" d="M 2834 3397 
L 2834 2853 
Q 2591 2978 2328 3040 
Q 2066 3103 1784 3103 
Q 1356 3103 1142 2972 
Q 928 2841 928 2578 
Q 928 2378 1081 2264 
Q 1234 2150 1697 2047 
L 1894 2003 
Q 2506 1872 2764 1633 
Q 3022 1394 3022 966 
Q 3022 478 2636 193 
Q 2250 -91 1575 -91 
Q 1294 -91 989 -36 
Q 684 19 347 128 
L 347 722 
Q 666 556 975 473 
Q 1284 391 1588 391 
Q 1994 391 2212 530 
Q 2431 669 2431 922 
Q 2431 1156 2273 1281 
Q 2116 1406 1581 1522 
L 1381 1569 
Q 847 1681 609 1914 
Q 372 2147 372 2553 
Q 372 3047 722 3315 
Q 1072 3584 1716 3584 
Q 2034 3584 2315 3537 
Q 2597 3491 2834 3397 
z
" transform="scale(0.015625)"/>
      </defs>
      <use xlink:href="#DejaVuSans-4f"/>
      <use xlink:href="#DejaVuSans-66" transform="translate(78.710938 0)"/>
      <use xlink:href="#DejaVuSans-66" transform="translate(113.916016 0)"/>
      <use xlink:href="#DejaVuSans-2d" transform="translate(143.621094 0)"/>
      <use xlink:href="#DejaVuSans-74" transform="translate(179.705078 0)"/>
      <use xlink:href="#DejaVuSans-61" transform="translate(218.914062 0)"/>
      <use xlink:href="#DejaVuSans-72" transform="translate(280.193359 0)"/>
      <use xlink:href="#DejaVuSans-67" transform="translate(319.556641 0)"/>
      <use xlink:href="#DejaVuSans-65" transform="translate(383.033203 0)"/>
      <use xlink:href="#DejaVuSans-74" transform="translate(444.556641 0)"/>
      <use xlink:href="#DejaVuSans-20" transform="translate(483.765625 0)"/>
      <use xlink:href="#DejaVuSans-6b" transform="translate(515.552734 0)"/>
      <use xlink:href="#DejaVuSans-69" transform="translate(573.462891 0)"/>
      <use xlink:href="#DejaVuSans-6e" transform="translate(601.246094 0)"/>
      <use xlink:href="#DejaVuSans-61" transform="translate(664.625 0)"/>
      <use xlink:href="#DejaVuSans-73" transform="translate(725.904297 0)"/>
      <use xlink:href="#DejaVuSans-65" transform="translate(778.003906 0)"/>
      <use xlink:href="#DejaVuSans-73" transform="translate(839.527344 0)"/>
     </g>
    </g>
   </g>
  </g>
 </g>
 <defs>
  <clipPath id="pd5fa45a007">
   <path d="M 438.423156 253.50825 
C 438.423156 227.452106 433.290664 201.649324 423.319409 177.576586 
C 413.348154 153.503848 398.732053 131.629306 380.307577 113.20483 
C 361.8831 94.780353 340.008559 80.164252 315.93582 70.192997 
C 291.863082 60.221742 266.060301 55.08925 240.004156 55.08925 
C 213.948012 55.08925 188.145231 60.221742 164.072492 70.192997 
C 139.999754 80.164252 118.125212 94.780353 99.700736 113.20483 
C 81.276259 131.629306 66.660158 153.503848 56.688903 177.576586 
C 46.717649 201.649324 41.585156 227.452106 41.585156 253.50825 
C 41.585156 279.564394 46.717649 305.367176 56.688903 329.439914 
C 66.660158 353.512652 81.276259 375.387194 99.700736 393.81167 
C 118.125212 412.236147 139.999754 426.852248 164.072492 436.823503 
C 188.145231 446.794758 213.948012 451.92725 240.004156 451.92725 
C 266.060301 451.92725 291.863082 446.794758 315.93582 436.823503 
C 340.008559 426.852248 361.8831 412.236147 380.307577 393.81167 
C 398.732053 375.387194 413.348154 353.512652 423.319409 329.439914 
C 433.290664 305.367176 438.423156 279.564394 438.423156 253.50825 
M 240.004156 253.50825 
C 240.004156 253.50825 240.004156 253.50825 240.004156 253.50825 
C 240.004156 253.50825 240.004156 253.50825 240.004156 253.50825 
C 240.004156 253.50825 240.004156 253.50825 240.004156 253.50825 
C 240.004156 253.50825 240.004156 253.50825 240.004156 253.50825 
C 240.004156 253.50825 240.004156 253.50825 240.004156 253.50825 
C 240.004156 253.50825 240.004156 253.50825 240.004156 253.50825 
C 240.004156 253.50825 240.004156 253.50825 240.004156 253.50825 
C 240.004156 253.50825 240.004156 253.50825 240.004156 253.50825 
C 240.004156 253.50825 240.004156 253.50825 240.004156 253.50825 
C 240.004156 253.50825 240.004156 253.50825 240.004156 253.50825 
C 240.004156 253.50825 240.004156 253.50825 240.004156 253.50825 
C 240.004156 253.50825 240.004156 253.50825 240.004156 253.50825 
C 240.004156 253.50825 240.004156 253.50825 240.004156 253.50825 
C 240.004156 253.50825 240.004156 253.50825 240.004156 253.50825 
C 240.004156 253.50825 240.004156 253.50825 240.004156 253.50825 
C 240.004156 253.50825 240.004156 253.50825 240.004156 253.50825 
z
"/>
  </clipPath>
 </defs>
</svg>
